<?xml version="1.0" encoding="utf-8"?>
<!-- Generator: Adobe Illustrator 24.0.0, SVG Export Plug-In . SVG Version: 6.00 Build 0)  -->
<svg version="1.1" id="Layer_1" xmlns="http://www.w3.org/2000/svg" xmlns:xlink="http://www.w3.org/1999/xlink" x="0px" y="0px"
	 viewBox="0 0 1024 768" style="enable-background:new 0 0 1024 768;" xml:space="preserve">
<style type="text/css">
	.st0{fill:none;stroke:#27628A;stroke-width:0;stroke-miterlimit:10;}
	.st1{fill:none;stroke:#002737;stroke-width:0;stroke-miterlimit:10;}
	.st2{fill:none;stroke:#6B8C99;stroke-width:0;stroke-miterlimit:10;}
	.st3{fill:none;stroke:#7E8E86;stroke-width:0;stroke-miterlimit:10;}
	.st4{fill:none;stroke:#195E80;stroke-width:0;stroke-miterlimit:10;}
	.st5{fill:none;stroke:#829694;stroke-width:0;stroke-miterlimit:10;}
	.st6{fill:none;stroke:#003046;stroke-width:0;stroke-miterlimit:10;}
	.st7{fill:none;stroke:#5F6364;stroke-width:0;stroke-miterlimit:10;}
	.st8{fill:none;stroke:#123553;stroke-width:0;stroke-miterlimit:10;}
	.st9{fill:none;stroke:#767A7B;stroke-width:0;stroke-miterlimit:10;}
	.st10{fill:none;stroke:#345A82;stroke-width:0;stroke-miterlimit:10;}
	.st11{fill:none;stroke:#0E1316;stroke-width:0;stroke-miterlimit:10;}
	.st12{fill:none;stroke:#454A4D;stroke-width:0;stroke-miterlimit:10;}
	.st13{fill:none;stroke:#E0CCB4;stroke-width:0;stroke-miterlimit:10;}
	.st14{fill:none;stroke:#8D7F6B;stroke-width:0;stroke-miterlimit:10;}
	.st15{fill:none;stroke:#A8ACAE;stroke-width:0;stroke-miterlimit:10;}
	.st16{fill:none;stroke:#6F91A5;stroke-width:0;stroke-miterlimit:10;}
	.st17{fill:none;stroke:#DFE0DF;stroke-width:0;stroke-miterlimit:10;}
	.st18{fill:none;stroke:#597D90;stroke-width:0;stroke-miterlimit:10;}
	.st19{fill:none;stroke:#2C6997;stroke-width:0;stroke-miterlimit:10;}
	.st20{fill:none;stroke:#547683;stroke-width:0;stroke-miterlimit:10;}
	.st21{fill:none;stroke:#657F9A;stroke-width:0;stroke-miterlimit:10;}
	.st22{fill:none;stroke:#90ACC9;stroke-width:0;stroke-miterlimit:10;}
	.st23{fill:none;stroke:#4F85C4;stroke-width:0;stroke-miterlimit:10;}
	.st24{fill:none;stroke:#7B94B1;stroke-width:0;stroke-miterlimit:10;}
	.st25{fill:none;stroke:#34506B;stroke-width:0;stroke-miterlimit:10;}
	.st26{fill:none;stroke:#C2C5C6;stroke-width:0;stroke-miterlimit:10;}
	.st27{fill:none;stroke:#7EA2B1;stroke-width:0;stroke-miterlimit:10;}
	.st28{fill:none;stroke:#8E9292;stroke-width:0;stroke-miterlimit:10;}
	.st29{fill:#C4C6C6;}
	.st30{fill:#FFFFFF;}
	.st31{fill:#115772;}
	.st32{fill:#1F658C;}
	.st33{fill:#FDD3A1;}
	.st34{fill:#2D3032;}
	.st35{fill:#8E9497;}
	.st36{fill:#396DA3;}
	.st37{fill:#699BD2;}
	.st38{fill:#231F20;}
</style>
<path class="st0" d="M607.6,180.8c0.2-2.3-0.6-3.9-2.3-5"/>
<path class="st1" d="M607.6,180.8c5.7,10.8,17.4,27.1,15.3,37.9c-2.6,13.8-25,32.3-37.2,43.4"/>
<line class="st2" x1="585.7" y1="262" x2="544.4" y2="261.5"/>
<path class="st3" d="M544.4,261.5c-2.4-3.5-3.3-6.8-2.8-9.8c0.2-1.2,1.2-2.3,2.7-2.8c17.1-6.7,29-16.9,35.7-30.6
	c0.7-1.4,2.1-2,4-1.8c10.6,1.3,15.8-2.5,15.4-11.3c-0.1-1.4-0.9-2.5-2.6-3l-12.9-4.4"/>
<path class="st4" d="M584,197.8c-14.9-33.8-41.3-60.8-79.1-81.2"/>
<path class="st5" d="M584,197.8c-51.5-11-100.5-10-146.9,3c-2.2,0.6-3.2,2.1-3.1,4.5"/>
<path class="st4" d="M434,205.3c-5.6-0.3-13.8,1.8-24.5,6.3"/>
<path class="st6" d="M409.4,211.6c6.3-11.7,11.6-21.1,15.9-28.3c0.4-0.7-0.1-1.6-1.4-2.8"/>
<path class="st1" d="M409.4,211.6c2.8,16.5,15.9,33.5,39.3,51.1"/>
<path class="st7" d="M448.7,262.7l-22.7,1.1c-5.3,0.3-9.4,3.6-9.5,7.6l-0.3,10.7"/>
<path class="st6" d="M416.2,282.1c-15.1,2.6-24.3,7.9-27.7,16.2c-2.9,7.1-8.5,24.4-16.6,51.9c-0.4,1.3,0.2,2.6,1.5,3.4
	c2.9,2,7.2,2.4,12.9,1.5"/>
<line class="st8" x1="386.2" y1="355.1" x2="386" y2="393.3"/>
<path class="st9" d="M386,393.3c-10.3-9.2-24.3-11.1-42-5.7c-1.7,0.5-2.8,1.5-3.1,2.9l-15.3,62.7c-0.9,3.4,3.2,6.3,7.7,5.6
	c26.5-4.6,43.8-16.5,52.1-35.5"/>
<line class="st8" x1="385.3" y1="423.2" x2="389.7" y2="423.4"/>
<path class="st9" d="M389.7,423.4c-4.3,12.5-5.9,23.7-4.8,33.4"/>
<path class="st8" d="M384.9,456.9c0.8,9.9,4.6,17.1,11.6,21.5c4.7,3,13.5,4.5,26.4,4.5c62.9,0,125.7,0,188.6,0
	c23,0,38.6-6.4,34.1-25.7"/>
<path class="st9" d="M645.6,457.2l11.1-2.5c1.7-0.3,2.6-1.2,2.9-2.4c1.7-6.7,3.3-13.4,4.8-20.1c0.6-2.8,1.6-4.7,3-5.7
	c2.4-1.8,5.5-2,9.4-0.7c1.2,0.4,1.6,1.1,1.4,2l-6.3,24c-0.3,1.2,0.3,2,1.9,2.3c14,3,18.2-1.3,19.8-11.3c3.2-18.9,8-37.7,14.4-56.4
	c0.4-1.1-0.8-2.2-2.3-2.1l-15,1c-1.5,0.1-2.7,0.9-3,2.1l-6.1,23.1c-0.4,1.4-1.4,2.2-3.3,2.5l-6.3,1c-2.8,0.4-3.9-0.4-3.3-2.5
	l6.6-22.8c0.4-1.4-0.4-2.2-2.2-2.3l-14.5-1.3c-1.7-0.1-3.1,0.7-3.4,2l-6.7,30"/>
<path class="st8" d="M648.6,416.9c-1.7-6.5-3.8-11.1-6.5-13.8"/>
<path class="st9" d="M642.2,403.1c8.7-0.3,10.2-5.4,4.5-15.2"/>
<line class="st8" x1="646.7" y1="387.9" x2="647.2" y2="356.5"/>
<path class="st1" d="M647.2,356.5l11-0.7c1.6-0.1,2.7-1.1,2.8-2.2c0.6-18.5-10.6-39.2-16.8-57.3c-2-5.7-10.5-10.6-25.7-14.6"/>
<path class="st7" d="M618.5,281.7c3.5-15.6-7.5-22.1-32.8-19.7"/>
<path class="st10" d="M855.1,506.2c-0.4-0.4-0.7-0.8-1.1-1.2"/>
<path class="st8" d="M854,505l-4.6-7c-0.7-1.1-2.1-1.7-3.7-1.7h-57.5c-1.7,0-3.1,1.1-3.1,2.4l-0.1,7.2"/>
<path class="st10" d="M785,505.9c-0.8,0.2-1.5,0.6-2.1,1.2c-1.1,0.9-1.6,2.2-1.5,3.5c2.2,15.7,5.2,35.7-0.8,50.9c-2,5-2.1,9-0.5,12"
	/>
<path class="st8" d="M775.9,768c-21.6-2.3-40.4-9.1-56.4-20.4c-1.6-1.2-1.7-2.3-0.3-3.4"/>
<path class="st9" d="M719.3,744.2l1.6-0.9c0.6-0.3,0.9-0.8,0.9-1.3v-6.3c0-1,0.5-1.2,1.6-0.6c1.9,1,0.1,6.1,3.9,8.7
	c1.9,1.3,5,0.4,5.3-1.5l3.4-22.9c0.2-1.3-0.6-2.1-2.3-2.2c-3.7-0.4-6.2,1-7.4,4c-0.7,1.7-1.5,3.3-2.6,4.9c-1.2,1.8-1.8,1.7-1.8-0.3
	V722c0-4.1-7-5.7-10-2.3c-3.4,3.9-3.2,8.4,0.4,13.5"/>
<path class="st11" d="M712.2,733.2c-0.6,0.1-1.1,0.2-1.7,0.2"/>
<path class="st9" d="M710.5,733.4c-3-3.7-4.4-7.5-4.3-11.3c0.1-5-7.6-7.6-12.5-4.3l-10.5,7.2"/>
<line class="st8" x1="683.1" y1="725" x2="682.4" y2="723.1"/>
<path class="st9" d="M682.4,723.1c0.4-2.2-0.3-3.9-2.1-5.1c-1.4-0.9-3-1.2-4.7-0.8c-4.3,1-8.3,3.2-11.9,6.6"/>
<path class="st8" d="M663.8,723.8c-8.4,0.9-13.8,0-16-2.6"/>
<path class="st9" d="M647.8,721.2l-0.5-2.3c-0.3-1.3-1.4-1.9-3.1-1.7c-1.8,0.2-3.4,1.2-4.7,2.9"/>
<line class="st12" x1="639.5" y1="720" x2="636.3" y2="720"/>
<path class="st9" d="M636.3,720c-0.6-1-1.4-1.7-2.5-1.9c-1-0.2-1.9,0-2.8,0.7c-2.6,1.9-3.4,4.9-2.5,8.9"/>
<line class="st7" x1="628.5" y1="727.7" x2="626.2" y2="726.8"/>
<path class="st9" d="M626.2,726.8l-0.2-4.2c-0.2-3.1-3.2-5.7-7.3-6.1c-4-0.4-7.9,1.5-9.1,4.4l-5.7,13.7c-0.2,0.4-0.6,0.8-1,1
	c-0.4,0.2-0.7,0.1-0.6-0.3l2.7-16.4c0.3-1.6-1.4-3-3.4-3c-4.4,0-7.7,3.4-10,10.1"/>
<path class="st8" d="M591.5,726.1c-0.8,0-1.5,0-2.3-0.1"/>
<path class="st9" d="M589.2,726c2.4-3.4,2.3-6-0.3-7.8c-1.3-0.9-2.7-1.1-4.3-0.7c-3.7,1-5.9,3.1-6.7,6.4"/>
<path class="st8" d="M577.9,723.9c-3-0.5-4.4-0.2-4.2,0.8"/>
<path class="st9" d="M573.7,724.7c1.3-3.5,0.4-6-2.5-7.4c-3.9-2-9.3,0.2-13.4,1.3"/>
<path class="st8" d="M557.8,718.5c-7.5-4.4-11.3-9.2-11.3-14.2c0.1-37.8,0.1-75.8-0.2-113.9c-0.1-1.3-0.9-2-2.7-2h-53.8
	c-1.8,0-2.6,0.7-2.6,2c-0.1,23.3,7.4,110.9-7.1,126"/>
<path class="st9" d="M480.2,716.5c-7.8-0.7-13.6,1.2-17.5,5.9c-0.9,1-1.8,1.1-3,0.2l-6.9-5.2c-1.3-1-2.7-1.2-4.4-0.7
	c-7.6,2.3-12.7,6.3-15.2,12.2"/>
<path class="st8" d="M433.2,728.9c-1.2-0.3-2.7-0.3-4.3-0.1"/>
<path class="st9" d="M428.9,728.8c1.8-4.1,2-7.5,0.8-10.3c-1-2-2.4-2.3-4.4-0.8l-3.4,2.6c-1.1,0.8-2.2,0.8-3.3,0.1l-4.8-3.2
	c-1.3-0.8-2.6-1-4.2-0.6c-7.5,2.2-12.3,6.1-14.2,11.8c-0.1,0.3-0.5,0.5-0.9,0.4c-0.4,0-0.7-0.3-0.6-0.7l2.6-11
	c0.2-0.6-0.6-1.2-1.5-1c-4,0.7-6.8,3.4-8.4,8.1"/>
<path class="st8" d="M386.6,724.1c-0.6-0.2-1.2-0.3-1.8-0.5"/>
<path class="st9" d="M384.8,723.7l-1.5-4.8c-0.6-1.9-2-2.4-4.2-1.5l-3.4,1.4c-1.3,0.5-2.6,0.5-3.8-0.1c-6-2.8-11.2-1.6-15.5,3.7"/>
<line class="st8" x1="356.3" y1="722.4" x2="352.3" y2="720.8"/>
<path class="st9" d="M352.3,720.8c-0.3-1-0.2-1.5,0.1-1.7c1-0.5,0.1-1.7-1.4-1.7l-37.3,0.5c-1.5,0-2.4,0.6-2.8,1.7l-2.4,6.9
	c-0.8,2.1-1.7,2.2-3,0.2c-1.5-2.2-1.5-4.4,0-6.5c0.8-1.1,0.4-1.8-1.2-2.1c-14.3-3-24.4,0.3-30.3,10.1c-0.8,1.2-1.9,1.4-3.3,0.6
	l-3.6-2c-1.7-0.9-1.4-2.9,0.5-3.5l7.7-2.6c2.4-0.8,1.5-3.6-1.1-3.5l-34.4,1.6c-1,0-1.9-0.1-2.8-0.4c-8.9-3.2-14.8-1.8-17.7,4.3"/>
<path class="st11" d="M219.5,722.7c-0.6,0.2-1.3,0.2-2,0.1"/>
<path class="st9" d="M217.4,722.8c-1.2-4.6-5.7-6.5-13.3-5.6c-2.4,0.3-4.2,1.7-4.6,3.4l-5.3,21.7c-0.4,1.3,0.4,2,2.1,2
	c7.3,0.2,13.2-2.5,17.5-8.1"/>
<line class="st11" x1="213.8" y1="736.2" x2="217.4" y2="736.3"/>
<path class="st9" d="M217.4,736.3c-1.5,2.6-1.9,4.8-1.2,6.8c0.7,1.7,1.9,2,3.8,1.1c2.5-1.2,3.7-2.8,3.6-5c-0.1-2,3.4-2.6,4.5-0.9
	l2.9,4.5c0.8,1.2,3.1,1.2,3.8,0c1.7-2.8,1.3-5.5-1.2-8.1c-0.9-1-0.9-2.2,0-3.1l7.6-8.1c1.8-1.9,5.8-0.6,5.2,1.7l-4.2,16.1
	c-0.5,1.8,0.5,2.7,2.9,2.7h1.5c1.6,0,3-0.8,3.3-2l5.2-19.5c0.3-0.8,1.3-1.4,2.4-1.3c1.1,0.2,1.9,1,1.7,1.8l-3.2,19.1
	c-0.3,1.8,0.7,2.5,3.1,2.2l11.6-1.8c3.3-0.5,3.6-1.5,0.9-3.1c-1.4-0.8-2.9-1.2-4.4-1.1c-2.8,0.2-3.9-2.6-1.5-3.7l4.3-1.9
	c1.6-0.7,2.6-0.4,3,1l3.1,9.6c0.6,1.7,1.9,2.3,4.2,1.9c6.1-1.1,9.9-3.8,11.5-7.9c0.6-1.6-2-2.8-3.6-1.6l-2,1.5
	c-1.8,1.3-4.8,0.3-4.7-1.6c0.3-5.5,3.5-9.4,9.8-11.8c2.8-1,5.9,0.7,5.3,3l-3.3,14.7c-0.5,2.1,2.5,3.6,4.9,2.5
	c3.5-1.7,4.6-4.2,3.2-7.6c-0.3-0.6-0.1-1.2,0.6-1.7l1.2-0.9c1.7-1.3,2.7-1.1,3.1,0.7c0.5,2.2,0.1,4.3-1.3,6.3
	c-0.7,1.1-0.3,1.8,1.3,2.2c2,0.4,3.7,0.2,5-0.8c2.7-1.9,4.2-15.8,6.7-19.8c0.6-1,2.1-1.4,3.4-1.1c1.4,0.3,2.2,1.4,1.9,2.4l-4.7,20.7
	"/>
<path class="st8" d="M318.7,744.4C301,758,280.1,765.9,256.1,768 M244.8,768c-25.5-2-46.6-10.4-63.3-25"/>
<path class="st9" d="M181.5,743c2.7-4.6,2.9-7.5,0.6-8.8"/>
<path class="st8" d="M182.1,734.2c-0.4-0.7,0-1.5,1.1-2.4"/>
<path class="st9" d="M183.2,731.8c2.2-1.8,3-4,2.4-6.6c-0.4-1.3-1.3-1.8-3-1.3l-2.9,0.7c-1.5,0.3-3-0.6-2.9-1.8
	c0.3-1.9-0.7-3.5-2.8-4.8c-1-0.6-2.1-0.9-3.4-0.8l-7,0.3"/>
<line class="st8" x1="163.7" y1="717.4" x2="159" y2="692.6"/>
<path class="st9" d="M159,692.6c8.4,0.6,13.4-0.6,15.2-3.5c0.8-1.3-0.5-2.8-2.3-2.8h-6.2c-1.4,0-2-1.4-0.8-2
	c7.2-3.6,12.1-8,14.6-13.2 M179.5,671.2c1.8-0.1,3.3,0.3,4.7,1.2c1.3,0.9,1.8,2,1.5,3.3l-3.7,14.5c-0.3,1.1,0.3,1.8,1.6,2.2
	c4.5,1.4,7,0.3,7.5-3.1c0.8-6.1,2.4-12.1,4.8-17.9c0.8-1.8,2-2,3.8-0.7l2.2,1.7c1.3,1,1.8,2.2,1.4,3.6l-3.8,13.7
	c-0.6,2,0.5,2.9,3.1,2.9h2c2.1,0,3.3-0.8,3.7-2.3l6.4-24.9c0.3-1.2-1-2.2-2.5-2l-11.4,1.3c-1.3,0.2-2.5,0-3.6-0.3
	C191.7,662.5,177.8,663.4,179.5,671.2 M179.5,671.2l-4-7.4"/>
<path class="st8" d="M175.5,663.9c35.8-37.8,103-41.4,143.6-5.9c0.9,0.8,1.5,1.6,1.6,2.4c0.2,0.8,0.2,1.8,0.1,2.8"/>
<path class="st9" d="M320.8,663.1c-6-1.1-12.1-1-18.3,0.4c-1.5,0.3-2.1,1.1-2,2.2c0.3,2,1.7,3.4,4.2,4.1c2.5,0.7,2.7,1.7,0.5,3
	c-3.1,1.7-4.7,4.1-4.8,7c-0.1,1.5,0.9,2.2,2.9,1.8c2.9-0.5,5.5-0.2,8.1,0.9c1.4,0.6,2,1.8,1.4,3c-0.6,1.1-2.2,1.7-3.7,1.3l-4.8-1.2
	c-2.7-0.7-6,0.2-7.7,1.8c-1.6,1.7-1,3.8,1.5,4.7c10.5,4,18.8,0.8,24.8-9.3c1.2-2-0.7-4.3-3.5-4.4c-2.3-0.1-3.7-0.8-4-2.2
	c-0.4-1.3,0.4-2.2,2-2.7c4.5-1.2,6.7-4.1,6.4-8.5"/>
<path class="st8" d="M323.6,664.9c3.9,2.6,6.9,6.1,9.1,10.6c0.7,1.5,2.1,2.3,4.2,2.3h87.2c2.5,0,3.8-1,3.8-2.9v-84.4
	c0-1-1.1-1.8-2.4-1.9c-49.5-0.3-98.7-0.3-147.6-0.1c-11.4,0-20.8-4.8-28.2-14.7"/>
<path class="st10" d="M249.7,573.8l36.1-3.5c2.2-0.2,3.3-1.2,3.3-2.8v-6.1c0-2.1-1.4-3-4-2.6l-17.5,1.9c-1.5,0.2-2.7-0.8-2.4-2
	l4.3-14.2c0.4-1.2,1.8-2,3.4-2h18.6c1.9,0,3-0.7,3.4-2.2l1.7-6.9c0.5-1.8-0.6-2.7-3-2.6l-17.7,0.5c-1.9,0-2.6-0.6-2.1-2l4.6-14
	c0.4-1.2,1.4-1.7,2.9-1.7h21.1c1.8,0,2.9-0.7,3.5-1.9l3.3-7.6c0.7-1.6-0.1-2.3-2.3-2.2l-52,2.6"/>
<path class="st8" d="M255.1,504.5c-2.8,1.1-4.7,0.6-6-1.6"/>
<path class="st10" d="M249.1,503c1.2-1.1,2.4-2.3,3.5-3.4"/>
<path class="st8" d="M252.6,499.5c-23.2-3.7-45.2-4.6-66.2-2.6c-1.5,0.1-2.6,0.7-3.2,1.8c-36.1,62.6-143.4,54.2-169-11.3
	 M14.2,461.6c19.8-67.6,130-73.7,169.5-12.1c0.6,1,1.9,1.6,3.4,1.6h59.2c1.7,0,2.5-0.7,2.5-1.9V318.7c0-1.3-0.9-1.9-2.5-1.9h-59.4
	c-1.8,0-3.3,0.8-4,2c-35.1,61.7-149,54.3-168.7-12"/>
<path class="st10" d="M401.7,540.4c0.4-1.3,2.9-1.2,3.1,0.1l6.2,31.9c0.2,0.7,1,1.2,1.9,1l24.7-2.8c0.7-0.1,1.2-0.4,1.3-0.9
	l23.3-67.8c0.3-0.8-0.6-1.6-1.7-1.5l-17.8,1.1c-0.7,0-1.2,0.4-1.4,0.9l-10.6,30.3c-0.4,1.2-2.7,1.2-3.1,0L417.2,503
	c-0.2-0.5-0.8-0.9-1.6-0.9l-24.7,0.1c-0.8,0-1.4,0.4-1.6,0.9l-22.8,70.2c-0.3,0.9,0.7,1.7,1.9,1.5l21.8-3c0.6-0.1,1.1-0.5,1.3-0.9
	L401.7,540.4 M459.3,570.2c14.9,10.3,44.3,4.1,65.5-13.8c21.3-17.9,26.4-40.7,11.4-51c-14.9-10.3-44.3-4.1-65.5,13.8
	C449.5,537.1,444.4,559.9,459.3,570.2 M600.9,570.2c15,10.3,44.4,4.2,65.6-13.6c21.3-17.9,26.4-40.7,11.4-51
	c-15-10.3-44.3-4.2-65.6,13.6C591,537,585.9,559.9,600.9,570.2 M712.8,558.7c-12.7-11.3,10.9-41.4,26.6-46.1c1.8-0.5,3.7-0.1,5,1
	c8.1,7.2,18.1,8.1,30,2.6c1-0.5,1.4-1.3,1-2.1c-6.2-12.4-19.2-14.9-35.6-12.8c-31.5,3.9-50.6,17.6-57.2,41
	c-14.3,50.8,75.4,41.1,88.1-3.5c0.3-1-0.8-2-2.2-1.8l-38.7,3.5c-2,0.2-3.1,1-3.4,2.5l-0.9,4.5c-0.4,1.9,0.7,2.7,3.1,2.4l10.5-1.1
	c2.3-0.2,3.9,1.6,2.8,3.1C736.9,559.1,721.4,566.4,712.8,558.7 M363.8,553.4c-10-5.2-18.3-4.4-24.8,2.5c-4.7,5-15.1,1.6-13.6-4.5
	c3.2-12.2,10.6-22.6,22.3-30.9c1.4-1,3-1.2,4.7-0.8c8.9,2.2,17.7,1.7,26.4-1.6c1.7-0.6,2.4-1.6,2.3-3c-1.2-10.2-13.9-14.1-26.2-12.5
	c-65.5,8.4-76.4,85.5-20.4,70.3c12.3-3.3,22.2-8.9,29.8-16.8C365.5,555.1,365.3,554.2,363.8,553.4 M568.2,560.6
	c-1.6,0-2.7-1.2-2.2-2.3l21.4-54.3c0.5-1.2-0.8-2.4-2.5-2.3l-26.3,2c-1,0.1-1.8,0.6-2,1.3l-21.8,66.5c-0.4,1.2,0.9,2.3,2.4,2.2
	l46.4-3.2c1.3-0.1,2.2-0.9,2.1-1.8l-0.4-6.5c-0.1-1-1.1-1.7-2.3-1.7H568.2"/>
<path class="st9" d="M246.7,683.8c7-2.8,12.2-7,15.3-12.4c0.7-1.2,2.6-1.8,4.2-1.4c1.7,0.5,2.5,1.8,2,3.1l-7,17.1
	c-0.7,1.6,1.2,3.1,3.3,2.8c3-0.4,5-1.3,6.1-3.6c2.8-5.7,5.3-11.5,7.6-17.4c0.6-1.5,1.8-1.9,3.7-1.3l3.8,1.3c1.6,0.5,2.4,1.8,2.1,3.1
	l-4.1,15.7c-0.5,1.7,0.5,2.4,2.7,2.1c4-0.6,6.4-2.5,7.1-6c1.6-7.1,3.2-14.3,5-21.5c0.5-1.7-0.5-2.5-2.8-2.2l-8.3,1.1
	c-1.5,0.2-2.8,0.1-4.2-0.4c-7.5-2.6-14.4-1.9-20.8,2.1c-1.2,0.7-2.4,0.7-3.5,0c-8.6-5.4-15.8-4.2-21.8,3.7c-0.9,1.2-0.6,2.6,0.8,3.5
	c3.8,2.6,6.7,1.6,8.6-2.9c0.6-1.5,1.6-1.6,2.8-0.4l1.9,1.8c1.1,1,0.7,2.6-0.9,3.1c-7.9,2.9-13.8,7.3-17.7,13.1
	c-1.5,2.3,0.8,4.9,4.1,4.7l15-0.8c1.9-0.1,3-0.8,3.4-2.3l0.4-1.5c0.4-1.3-0.3-1.9-2.1-1.9l-5.9,0.2
	C245.7,686.5,245,684.5,246.7,683.8 M233.4,679.1c-0.2-2.2-4.8-3.8-10.2-3.5c-5.4,0.3-9.6,2.4-9.4,4.6c0.2,2.2,4.8,3.8,10.2,3.5
	C229.5,683.4,233.7,681.3,233.4,679.1"/>
<path class="st13" d="M544.4,261.5c-18.8,2.5-37.7,2.5-56.9,0.1"/>
<path class="st3" d="M487.5,261.6c2.9-4,4-7.6,3.4-10.7c-0.3-1.3-1.1-2.3-2.7-2.9c-16.3-6.6-27.7-16.5-34.2-29.6
	c-0.7-1.3-1.9-1.9-3.8-1.7c-11.2,1-16.6-2.7-16.3-11.3"/>
<path class="st14" d="M469.5,207.4v5.8c0,1.9,1.3,2.9,3.8,2.9h29c1.3,0,2.4-0.5,3-1.4l4.6-6.5c0.7-1,1.8-1.6,3.3-1.7
	c8.8-0.9,13.9,1.7,15.4,7.9c0.4,1.6,1.7,2.4,3.8,2.4l28.9-0.1c1.9,0,2.9-0.7,2.9-2.2v-7.3c0-1.3,0.9-1.9,2.5-1.9l13.3,0.3
	c1.2,0,2.2-0.6,2.4-1.5c0.2-0.9-0.5-1.7-1.6-2c-15.6-3.8-31.3-4.9-47.1-3.3c-9,0.9-16.7,6.6-27.8,0.5c-1.5-0.8-3.1-1.2-4.8-1.1
	l-47.9,2.8c-1.6,0.1-2.8,1.1-2.8,2.3c0.1,1.2,1.4,2.2,3,2.2H467C468.7,205.4,469.5,206.1,469.5,207.4"/>
<path class="st2" d="M487.5,261.6l-38.8,1.2 M618.5,281.7l-0.1,59.2"/>
<path class="st15" d="M618.5,340.9c-0.8,1.3-2,2-3.9,2.1c-65.9,1.1-132,1.2-198.1,0.3"/>
<line class="st16" x1="416.5" y1="343.3" x2="416.2" y2="282.1"/>
<path class="st17" d="M531.1,306.5c0-6.1-6.5-11.1-14.5-11.1c-8,0-14.5,5-14.5,11.1c0,6.1,6.5,11.1,14.5,11.1
	C524.6,317.6,531.1,312.7,531.1,306.5"/>
<path class="st18" d="M416.5,343.3l-9.2,0.5c-1.7,0.1-2.9,0.7-3.8,1.8c-2,2.7-1.4,5.9,1.9,9.6"/>
<line class="st19" x1="405.4" y1="355.2" x2="386.2" y2="355.1"/>
<line class="st0" x1="647.2" y1="356.5" x2="627" y2="356"/>
<path class="st20" d="M627,356c10.4-7.7,2.1-12.8-8.6-15.1"/>
<line class="st21" x1="627" y1="356" x2="587.4" y2="355.9"/>
<line class="st12" x1="587.4" y1="355.9" x2="446.2" y2="355.3"/>
<line class="st21" x1="446.2" y1="355.3" x2="405.4" y2="355.2"/>
<line class="st8" x1="446.2" y1="355.3" x2="445.7" y2="387.7"/>
<path class="st22" d="M445.7,387.7c-14.9-3.9-29.7-3.8-44.4,0.3c-1.6,0.4-2.6,1.3-2.9,2.6l-8.6,32.9 M385.3,423.2
	c5.3-9.7,5.6-19.7,0.7-29.9"/>
<line class="st8" x1="587.4" y1="355.9" x2="587.9" y2="385.1"/>
<path class="st9" d="M587.9,385.1l-27.7,2.4c-1.9,0.2-3.1,1-3.4,2.4l-12.2,49"/>
<path class="st8" d="M544.6,439c-4.7-1.5-9.4-1.7-14.2-0.4"/>
<path class="st9" d="M530.4,438.6l7.9-36.3c0.3-1.3,1.3-2,3.1-2h5.5c2,0,3.2-0.8,3.6-2.3l2.7-10.4c0.4-1.4-0.4-2.1-2.3-2l-41.8,1.6
	c-1.7,0.1-2.7,0.8-2.8,2.1l-1.1,8.3c-0.2,1.2,0.5,1.8,2.1,1.8h6.6c2.4,0,3.4,0.9,3,2.8l-8.5,36.6"/>
<path class="st8" d="M508.6,438.7c-17.8-1.8-35.6-1.5-53.4,0.9"/>
<line class="st9" x1="455.2" y1="439.6" x2="446.8" y2="439.5"/>
<line class="st8" x1="446.8" y1="439.5" x2="445.3" y2="408.2"/>
<path class="st9" d="M445.3,408.2c3.4-6.8,3.5-13.7,0.4-20.5"/>
<path class="st22" d="M646.7,387.9c-32-10.9-52.8,18.1-57.2,37.6"/>
<path class="st8" d="M589.5,425.5c-1.5-0.3-2.9-0.3-4.2-0.2"/>
<path class="st22" d="M585.3,425.3c2.6-4.6,3.3-8.6,2.2-11.7"/>
<line class="st8" x1="587.5" y1="413.6" x2="588.3" y2="397"/>
<path class="st22" d="M588.3,397c5.4,0.1,8.5-3.3,9.2-10.2c0.2-1.2-0.6-1.8-2.2-1.8l-7.4,0.1 M645.6,457.2c-4.7,2-6.6,1.3-5.8-2.2
	c3.5-13.7,6.5-26.4,8.8-38.2"/>
<path class="st9" d="M364.5,399.4c-2.4-1.2-5.7-0.2-6.2,2l-10.5,41c-0.7,2.8,0.2,3.1,2.5,0.9C358.7,435.6,379.8,407.1,364.5,399.4"
	/>
<path class="st22" d="M445.3,408.2l-17.4,14.3c-1.2,1-1.5,2.1-0.8,3.3l10.2,17.3c0.8,1.3,2,1.7,3.6,1.1c2.7-1,4.6-2.5,5.8-4.6
	 M455.2,439.6c19.1,8.6,8.8,22.3-9.8,19.8c-1.9-0.2-3.2-1-4-2.2l-2.6-3.9c-0.7-1-2.3-1.5-3.8-1.1l-11.5,3.3
	c-1.6,0.5-2.7,0.1-3.1-1.2l-8.8-23.3c-0.5-1.2-2.8-1.1-3.1,0.1l-5.1,20.2c-0.4,1.3-1.7,2.4-3.4,2.8l-15,2.9 M430.6,399.1l-10.7-0.9
	c-2-0.2-3.9,0.9-4.2,2.5l-2.7,11.9c-0.5,1.9,2.6,3.2,4.5,1.9l15.2-10.2C435.3,402.6,434,399.4,430.6,399.1 M530.4,438.6l-3,13.7
	c-0.4,1.6-1.5,2.5-3.6,2.7l-16.3,2.2c-2.1,0.3-2.9-0.4-2.6-2l3.6-16.5"/>
<path class="st9" d="M588.3,397c-3.7-0.8-7.2-0.9-10.4-0.3c-1.7,0.3-2.6,1.2-3,2.4l-3.3,12.8c-0.4,1.2,0.3,1.8,2,1.8l14-0.1
	 M585.3,425.3l-14.5,0.2c-1.6,0-2.4,0.6-2.6,1.8l-1.9,14.1c-0.3,2,0.6,2.3,2.5,1c3.8-2.6,8.2-3.4,13.2-2.5"/>
<path class="st22" d="M582,439.8l0.9,10.5c0.2,1.5-0.8,2.3-2.6,2.5l-37.2,4.3c-1.9,0.2-2.7-0.4-2.4-1.8l3.9-16.3 M642.2,403.1
	c-19.9-1.3-30.7,10.4-32.3,34.8c-0.2,2.8,4.3,4.3,6.9,2.2l8.3-6.8c0.9-0.7,2-1,3.3-0.6l7.8,2c2.1,0.5,2.7,1.6,1.8,3.1
	c-10.2,19-43,32.1-49.7,0.8"/>
<line class="st9" x1="588.2" y1="438.7" x2="589.5" y2="425.5"/>
<path class="st8" d="M582,439.8c2,0.1,4-0.3,6.2-1.1"/>
<path class="st23" d="M252.6,499.5c-23.4,4.3-44.4,5.7-63.2,4.1c-2.1-0.2-3.4,0.5-3.9,2.1l-2.7,8.3c-0.4,1.3,0.8,2.5,2.5,2.5h11.9
	c2.1,0,3.6,1.5,3.1,3l-17.9,52.9c-0.5,1.5,0.3,2.2,2.3,2l26-2.3c1.3-0.1,2.3-0.8,2.6-1.8l15-51.3c0.4-1.3,1.4-2,3.1-2.1l11.7-0.7
	c1.5-0.1,2.4-0.7,2.8-1.8l3.3-11.4 M255.1,504.5L232,572.3c-0.4,1.2,0.9,2.4,2.5,2.3l15.2-0.8"/>
<path class="st23" d="M854,505l-22.8-1.9c-1.6-0.2-3.2,0.5-3.9,1.6l-14.7,23.5c-1.7,2.7-2.6,2.6-2.6-0.4v-21.7c0-2-2.4-3.5-5-3.1
	l-20,3"/>
<path class="st10" d="M481.6,557.3c6.9,3.9,20.1-0.7,29.5-10.3c9.4-9.6,11.6-20.6,4.7-24.5c-6.9-3.9-20.1,0.7-29.5,10.3
	C476.9,542.5,474.7,553.5,481.6,557.3 M623.1,557.5c7,3.9,20.2-0.7,29.7-10.3c9.4-9.6,11.5-20.7,4.5-24.6c-7-3.9-20.2,0.7-29.7,10.3
	C618.2,542.5,616.1,553.5,623.1,557.5"/>
<path class="st24" d="M567.8,742.8c1.9,0,2.8,0.3,2.6,0.9"/>
<path class="st25" d="M711.6,742.9c1.3,0.2,2.6,0.2,3.9,0"/>
<path class="st17" d="M570.8,731.8c0.8,3.1-0.2,6.8-3,11"/>
<path class="st17" d="M626.2,726.8c-3.3,3.8-5,7.9-5.3,12.4c-0.1,1.5,0.6,1.6,1.8,0.5c3.7-3.3,5.6-7.3,5.8-12.1"/>
<path class="st26" d="M636.3,720c-0.2,5.3-2,11.3-5.5,18.1c-0.5,0.9-0.2,1.7,0.8,2.3c1,0.7,1.6,0.5,1.9-0.5l6.1-20"/>
<path class="st27" d="M164.1,726l-4.8,10c-0.9,1.8,2.1,3.2,3.9,1.9c3.8-2.9,6.3-6.4,7.4-10.5c0.4-1.3-0.7-2.6-2.4-3
	C166.4,724,164.7,724.7,164.1,726"/>
<path class="st27" d="M152,736.6l-1-2.3c-0.6-1.3-2.7-1.7-3.9-0.7l-1.6,1.3c-2.1,1.6-0.6,4.2,2.3,4.2h1.9
	C151.9,739,152.7,738.2,152,736.6"/>
<path class="st28" d="M217.4,722.8c0.2,4.8-1.1,9.3-3.6,13.4"/>
<path class="st9" d="M206.4,724.1l-4.3,13.4c-1.6,4.8-0.6,5.1,2.9,0.9c3.6-4.3,5.5-8.9,5.9-13.8c0.1-0.9-0.8-1.7-1.9-1.8
	C207.8,722.6,206.7,723.2,206.4,724.1"/>
<path class="st28" d="M217.4,736.3c2.3-4.2,3-8.8,2.1-13.6"/>
<path class="st9" d="M226.8,725.1c-0.6,1.7,0.3,2.3,2.4,1.7l4-1.2c2.6-0.8,2.6-1.6,0.1-2.4C229.7,722.1,227.5,722.7,226.8,725.1"/>
<path class="st22" d="M368,741.1c3.8-4.2,5.7-9.6,5.5-16.2c0-1-0.7-1.4-2-1.3c-8.9,1.1-13.2,5.2-12.9,12.3c0.1,1.9,1.1,2.3,3.1,1.2
	l2.5-1.4c0.8-0.5,1.6-0.5,2.5,0C368.2,736.6,368.6,738.4,368,741.1"/>
<path class="st17" d="M570.4,743.7c2.3-3.6,3.5-7.7,3.4-12.2"/>
<path class="st22" d="M573.8,731.4l4.1-7.5 M581.2,733.2c-0.9,2.6-1.1,5.2-0.6,7.9c0.1,0.5,0.7,0.8,1.3,0.8c0.6,0,1.1-0.5,1.1-0.9
	v-7.6c0-0.3-0.4-0.7-0.8-0.7C581.8,732.7,581.3,732.9,581.2,733.2"/>
<line class="st28" x1="710.5" y1="733.4" x2="711.6" y2="742.9"/>
<path class="st22" d="M689,737.4c1.9,0.9,5.5-1.2,8-4.5c2.4-3.3,2.9-6.7,0.9-7.5c-1.9-0.9-5.5,1.2-8,4.5
	C687.5,733.2,687,736.6,689,737.4"/>
<line class="st28" x1="715.5" y1="742.8" x2="712.2" y2="733.2"/>
<line class="st24" x1="573.8" y1="731.4" x2="570.8" y2="731.7"/>
<path d="M245.5,0h11.1c36.5,3.8,62,18.2,76.3,43.3c0.7,1.2,1.8,1.7,3.5,1.7c37.3,0.2,74.6,0.2,111.8,0.1c23.7-0.1,38.5,5.9,38.6,25
	c0.1,16,0.3,32.5,0.7,49.6c-12.8,10.7-27.4,20.4-37.8,31.8c-7.1,7.7-14.1,16.1-21.1,25.1l-0.6-84.4c0-1.1-1.2-2-2.6-2h-89.6
	c-1.8,0-3.1,0.6-3.7,1.9c-29,53-116.1,56.5-157.5,10c-0.9-1-2.2-1.7-3.7-1.9L129.1,94c-4.1-0.6-5.7,0.6-4.6,3.7
	c3.9,12.2,2,20.1-5.7,23.5c-1.4,0.7-2.2,1.6-2.4,2.8c-2.9,23-55.6,15.1-77,15.4c-1.2,0-2.2,0.7-2.2,1.7l-0.7,14.1
	c-0.1,1.5-1,2.5-2.8,3.1c-8.1,2.7-14.6,2.8-19.5,0.3v-50.2c10.8-3.6,18.6-1.5,23.1,6.3c0.7,1.1,1.8,1.7,3.4,1.7h51.4
	c2.7,0,4.2-1,4.7-3l5.2-20.8c0.3-1.3-0.9-2.6-2.7-2.7c-9-0.7-13.6-4.3-13.7-10.8c0-1.4-0.8-2.6-2.2-3.5c-12-7.1-2.4-25.2-0.1-34.5
	c1-4.1,6.3-6.8,11.7-6.1l69,9.5c1.7,0.2,2.9-0.2,3.5-1.4C182.7,17.5,208.6,3.2,245.5,0 M231.5,83.5l20.9-18.2
	c1.6-1.3,1.2-2.2-1.2-2.5L95,40.4C89.3,46,86,55,85.3,67.3c-0.1,1.5,0.9,2.4,2.8,2.8l16,2.8c0.9,0.1,1.4,0.5,1.7,1.2l0.4,1
	c0.7,1.7-0.2,2.6-2.5,2.7l-6.8,0.2c-2,0-3.6,1.2-3.7,2.7c-0.2,1.5,1.2,2.8,3.2,3.1l140.9,19.8c1.8,0.3,3.4-0.6,3.8-2l4.1-17
	c0.2-0.7-0.3-1.3-1.1-1.5c-0.8-0.2-1.7,0-2.1,0.6c-6.6,8.8-16.8,12.2-30.5,10.2c-31.3-4.5-62.3-9.1-92.9-13.6
	c-1.6-0.2-2.8-1.3-2.8-2.5c-0.1-2.3,1.5-3.1,4.5-2.7c32.8,4.6,65.5,9.1,98.3,13.7C224.7,89.5,229.2,88,231.5,83.5 M116.4,95.7
	l-0.3-2.1c0-0.2-0.2-0.4-0.4-0.5c-1.9-1.1-3.7-1.4-5.5-0.9c-1.9,0.5-3.2,2.1-2.9,3.6c0.3,1.5,2,2.5,4,2.3c0.7-0.1,1.3-0.1,1.9,0
	C115,98.1,116.6,97,116.4,95.7 M120.3,109.6c0-3.2-3.4-5.8-7.7-5.8s-7.7,2.6-7.7,5.8c0,3.2,3.4,5.8,7.7,5.8S120.3,112.9,120.3,109.6
	 M30.4,115.3c0-1.6-1.7-2.8-3.7-2.8l-1.3,0c-2.1,0-3.7,1.3-3.7,2.9l0.2,36.4c0,1.6,1.7,2.8,3.7,2.8l1.3,0c2.1,0,3.7-1.3,3.7-2.9
	L30.4,115.3 M105,121.6l-65.1,0.5c-1.8,0-3.3,1.2-3.3,2.5l0.1,4.3c0.1,2.7,4,4.9,9,4.8l54-0.5c4.9,0,8.8-2.2,8.8-4.9l-0.1-4.3
	C108.4,122.7,106.8,121.6,105,121.6"/>
<path d="M776.4,0h11.1c84.9,7.6,115.5,84.8,44.2,123.4c-1.1,0.6-0.4,1.8,0.9,1.7l108.7-15.2c5.7-0.8,11.1,2,12.4,6.3
	c2.5,8.4,12.5,28.9-0.8,33.6c-1.2,0.5-1.9,1.5-1.7,2.5c1.3,6-1.8,10-9.3,11.9c-6,1.5-8.7,6.8-5.7,11c3.1,4.4,4,9.1,2.8,14.1
	c-0.4,1.3,0.4,1.9,2.1,1.9h55.3c1.5,0,2.5-0.5,3-1.5c5-8.3,12.9-10.2,23.7-5.6v50.5c-9.6,2.2-16.6,1.1-21.1-3.3
	c-1-1-1.6-2.3-1.6-3.5v-10.7c0-1.8-1.2-2.8-3.6-2.8c-20.8,0-73.8,7.5-75.8-15.6c-0.1-1.3-0.9-2.3-2.3-2.9c-10.6-5-12.3-11.8-5-20.2
	c2.6-3-0.8-6.9-5.4-6.3l-106,14.9c-6.4,0.9-12.6-2.3-13.8-7.2l-6.4-27c-0.4-1.3-1.1-2.6-2.2-3.7l-10.1-10.3c-1-1-2.3-1.7-4-2
	c-30.8-5.7-52.6-19.6-65.6-41.7c-0.8-1.2-2-1.8-3.8-1.8h-88.2c-1.8,0-2.6,0.7-2.6,2l-0.5,83.6c-16.4-22.3-36-40.6-58.8-55
	c0.1-18.9,0.1-37.1-0.1-54.6c-0.1-15.5,18.1-20.9,36.7-21c37.8-0.1,75.6-0.2,113.4-0.1c1.7,0,2.9-0.6,3.6-1.8
	C714.6,18.3,740.1,3.8,776.4,0 M939.9,115.6l-154,22c-2.3,0.3-2.6,1.1-1.1,2.5l24.1,21.4l3.5,1.8c1.4,0.7,2.9,0.9,4.6,0.7
	c33.4-4.6,66.9-9.3,100.3-14.3c3.3-0.5,4.9,0.5,5,2.9c0.1,1.3-1.2,2.5-2.9,2.7l-105.6,15c-1.7,0.2-3.4-0.2-4.6-1l-14.7-10.5
	c-1.8-1.3-2.5-1-2.1,0.8l3.7,16.1c0.5,2,2.9,3.3,5.5,2.9c45.9-6.6,92.2-13.1,138.8-19.6c3.4-0.5,4.4-2.2,2.9-5.1
	c-0.6-1.2-1.7-1.6-3.3-1.2c-3.2,0.8-5.9,0.3-7.9-1.3c-1.7-1.3-0.7-3.5,1.6-3.8l14.1-1.9c2.4-0.3,4.1-1.9,4.1-3.8
	C951.5,126.1,947.5,117.4,939.9,115.6 M922.7,172.5c1.9,0.8,4.2,0.3,5.3-1.2c1.1-1.5,0.5-3.3-1.3-4.1c-1.9-0.8-4.2-0.3-5.3,1.2
	C920.3,169.9,920.9,171.8,922.7,172.5 M932.6,184.5c0-3.3-3.5-5.9-7.8-5.9s-7.8,2.6-7.8,5.9s3.5,5.9,7.8,5.9
	S932.6,187.8,932.6,184.5 M1015.8,190.6c0-1.8-1.9-3.2-4.2-3.2h-0.3c-2.3,0-4.2,1.5-4.2,3.2v35.6c0,1.8,1.9,3.2,4.2,3.2h0.3
	c2.3,0,4.2-1.5,4.2-3.2V190.6 M999.3,197.1l-68.5-0.7c-0.9,0-1.6,0.5-1.6,1.2l-0.1,5.1c-0.1,3.4,4,6.1,9,6.2l53.5,0.5
	c5,0.1,9.2-2.6,9.2-6l0.1-5.1C1000.9,197.7,1000.2,197.2,999.3,197.1"/>
<path d="M50.1,44.5c-3.4-18.4,21.4-33,43.3-33.6c1.1,0,2.1,0.5,2.5,1.2c0.9,1.8-0.2,3-3.1,3.3c-21.8,2.5-33.9,12.2-36.2,29
	c-0.2,1.2-1.5,2.2-3.2,2.2C51.7,46.7,50.3,45.8,50.1,44.5"/>
<path d="M94.7,27.4c-14.1,2.1-18.6,7.1-23.1,16.9c-0.5,1.1-2.1,1.8-3.6,1.5c-1.5-0.3-2.5-1.4-2.3-2.6C67.8,30.8,77,24,93.4,22.8
	c1.5-0.1,2.8,0.8,2.8,2V26C96.2,26.8,95.7,27.3,94.7,27.4"/>
<path class="st29" d="M95,40.4l1.1,19.8c0.1,1.6,1.2,2.5,3.2,2.9l132.1,20.4c-2.2,4.5-6.7,6-13,5.1c-32.7-4.6-65.5-9.2-98.3-13.7
	c-3-0.4-4.5,0.5-4.5,2.7c0,1.2,1.2,2.3,2.8,2.5c30.7,4.6,61.7,9.1,92.9,13.6c13.7,2,23.9-1.4,30.5-10.2c0.4-0.6,1.3-0.8,2.1-0.6
	c0.8,0.2,1.3,0.8,1.1,1.5l-4.1,17c-0.4,1.3-2,2.2-3.8,2L96.3,83.7c-2-0.3-3.3-1.6-3.2-3.1c0.2-1.5,1.8-2.7,3.7-2.7l6.8-0.2
	c2.4,0,3.2-1,2.5-2.7l-0.4-1c-0.3-0.7-0.8-1-1.7-1.2L88,70c-1.9-0.3-2.8-1.3-2.8-2.8C86,55,89.3,46,95,40.4"/>
<path class="st30" d="M95,40.4l156.2,22.4c2.3,0.3,2.7,1.2,1.2,2.5l-20.9,18.2L99.3,63.1c-2.1-0.3-3.1-1.3-3.2-2.9L95,40.4z"/>
<path d="M948.3,92.2c-2.5-0.3-4.2-0.8-5.4-1.4c-3.1-1.7-1.4-5.4,2.4-5.1c25.2,1.7,39,12.6,41.6,32.5c0.3,1.8-1,2.8-3.7,2.7
	c-1.4,0-2.6-0.8-2.8-1.9C978.6,103.8,967.9,94.9,948.3,92.2"/>
<path class="st29" d="M113.3,98c-0.7,0-1.3,0-1.9,0c-2,0.2-3.7-0.8-4-2.3c-0.3-1.5,1-3.1,2.9-3.6c1.9-0.5,3.7-0.2,5.5,0.9
	c0.3,0.1,0.4,0.3,0.4,0.5l0.3,2.1C116.6,97,115,98.1,113.3,98"/>
<path d="M943.4,103.3c-2.4-0.2-3.5-2.4-1.9-3.8c2-1.7,4.7-2.1,8.3-1.4c14,2.9,21.2,9.8,21.6,20.8c0.1,1.1-1.2,2.1-2.6,2.1
	c-1.4,0-2.4-0.2-3.3-0.8c-0.6-0.4-1-1.1-1.2-2.2C962.8,109.1,955.8,104.2,943.4,103.3"/>
<path class="st30" d="M120.3,109.6c0,3.2-3.4,5.8-7.7,5.8s-7.7-2.6-7.7-5.8c0-3.2,3.4-5.8,7.7-5.8S120.3,106.4,120.3,109.6"/>
<path class="st30" d="M30.6,151.7c0,1.6-1.6,2.9-3.7,2.9l-1.3,0c-2.1,0-3.7-1.3-3.7-2.8l-0.2-36.4c0-1.6,1.6-2.9,3.7-2.9l1.3,0
	c2.1,0,3.7,1.3,3.7,2.8L30.6,151.7z"/>
<path class="st31" d="M546.4,120.8c22.8,14.4,42.4,32.7,58.8,55c1.7,1,2.5,2.7,2.3,5c5.7,10.8,17.4,27.1,15.3,37.9
	c-2.6,13.8-25,32.3-37.2,43.4l-41.4-0.5c-2.4-3.5-3.3-6.8-2.8-9.8c0.2-1.2,1.2-2.3,2.7-2.8c17.1-6.7,29-16.9,35.7-30.6
	c0.7-1.4,2.1-2,4-1.8c10.6,1.3,15.8-2.5,15.4-11.3c0-1.4-0.9-2.5-2.6-3l-12.9-4.4c-14.9-33.8-41.3-60.8-79.1-81.2
	C518.4,114.2,532.2,115.7,546.4,120.8"/>
<path class="st29" d="M808.8,161.4l5.8-0.3c1,0,1.5-0.4,1.6-1.2l0.3-1.5c0.2-1.1,1-1.7,2.4-1.9c20.7-2.9,41.3-6,61.9-9.3
	c14.3-2.3,39-4.3,58.4-9.7c1.5-0.4,2.4-1.5,2.3-2.7l-1.6-19.3c7.6,1.8,11.7,10.5,12,26.2c0.1,1.9-1.7,3.5-4.1,3.8l-14.1,1.9
	c-2.3,0.3-3.3,2.5-1.6,3.8c2,1.6,4.6,2,7.9,1.3c1.6-0.4,2.7,0,3.3,1.2c1.5,2.9,0.5,4.6-2.9,5.1c-46.6,6.5-92.9,13-138.8,19.6
	c-2.6,0.4-5-0.9-5.5-2.9l-3.7-16.1c-0.5-1.8,0.3-2.1,2.1-0.8l14.7,10.5c1.3,0.9,3,1.3,4.6,1l105.6-15c1.7-0.2,2.9-1.4,2.9-2.7
	c-0.1-2.4-1.7-3.4-5-2.9c-33.4,5-66.8,9.7-100.3,14.3c-1.7,0.2-3.2,0-4.6-0.7L808.8,161.4z"/>
<path class="st32" d="M504.9,116.6c37.8,20.4,64.2,47.5,79.1,81.2c-51.5-11-100.5-10-146.9,3c-2.2,0.6-3.2,2.1-3.1,4.5
	c-5.6-0.3-13.8,1.8-24.5,6.3c6.3-11.7,11.6-21.1,15.9-28.3c0.4-0.7-0.1-1.6-1.4-2.8c4.8-2.1,6.4-3.4,4.5-3.9c7-9,14-17.4,21.1-25.1
	c10.4-11.4,25.1-21.2,37.8-31.8L504.9,116.6z"/>
<path class="st30" d="M939.9,115.6l1.6,19.3c0.1,1.2-0.8,2.3-2.3,2.7c-19.4,5.4-44.1,7.4-58.4,9.7c-20.6,3.3-41.2,6.4-61.9,9.3
	c-1.4,0.2-2.2,0.8-2.4,1.9l-0.3,1.5c-0.2,0.7-0.7,1.1-1.6,1.2l-5.8,0.3l-24.1-21.4c-1.5-1.3-1.2-2.2,1.1-2.5L939.9,115.6z"/>
<path class="st29" d="M105,121.6c1.9,0,3.4,1.1,3.4,2.5l0.1,4.3c0.1,2.7-3.9,4.9-8.8,4.9l-54,0.5c-4.9,0-8.9-2.1-9-4.8l-0.1-4.3
	c0-1.4,1.5-2.5,3.3-2.5L105,121.6z"/>
<path class="st29" d="M922.7,172.5c-1.8-0.8-2.4-2.6-1.3-4.1c1.1-1.5,3.5-2,5.3-1.2c1.8,0.8,2.4,2.6,1.3,4.1
	C927,172.8,924.6,173.3,922.7,172.5"/>
<path class="st30" d="M932.6,184.5c0,3.3-3.5,5.9-7.8,5.9s-7.8-2.6-7.8-5.9c0-3.3,3.5-5.9,7.8-5.9S932.6,181.2,932.6,184.5"/>
<path d="M424,180.5c1.3,1.3,1.8,2.2,1.4,2.8c-4.4,7.2-9.7,16.6-15.9,28.3c2.8,16.5,15.9,33.5,39.3,51.1l-22.7,1.1
	c-5.3,0.3-9.4,3.6-9.5,7.6l-0.3,10.7c-15.1,2.6-24.3,7.9-27.7,16.2c-2.9,7.1-8.5,24.4-16.6,51.9c-0.4,1.3,0.2,2.6,1.5,3.4
	c2.9,2,7.2,2.4,12.9,1.5l-0.3,38.2c-10.3-9.2-24.3-11.1-42-5.7c-1.7,0.5-2.8,1.5-3.1,2.9l-15.3,62.7c-0.9,3.4,3.2,6.3,7.7,5.6
	c26.5-4.6,43.8-16.5,52.1-35.5l4.4,0.2c-4.3,12.5-5.9,23.7-4.8,33.4c0.8,9.9,4.6,17.1,11.6,21.5c4.7,3,13.5,4.5,26.4,4.5
	c62.9,0,125.7,0,188.6,0c23,0,38.6-6.4,34.1-25.7l11.1-2.5c1.7-0.3,2.6-1.2,2.9-2.4c1.7-6.7,3.3-13.4,4.8-20.1
	c0.6-2.8,1.6-4.7,3-5.7c2.4-1.8,5.5-2,9.4-0.7c1.2,0.4,1.6,1.1,1.4,2l-6.3,24c-0.3,1.2,0.3,2,1.9,2.3c14,3,18.2-1.3,19.8-11.3
	c3.2-18.9,8-37.7,14.4-56.4c0.4-1.1-0.8-2.2-2.3-2.1l-15,1c-1.5,0.1-2.7,0.9-3,2.1l-6.1,23.1c-0.4,1.4-1.4,2.2-3.3,2.5l-6.3,1
	c-2.8,0.4-3.9-0.4-3.3-2.5l6.6-22.8c0.4-1.4-0.4-2.2-2.2-2.3l-14.5-1.3c-1.7-0.1-3.1,0.7-3.4,2l-6.7,30c-1.7-6.5-3.8-11.1-6.5-13.8
	c8.7-0.3,10.2-5.4,4.5-15.2l0.6-31.4l11-0.7c1.6-0.1,2.7-1.1,2.8-2.2c0.6-18.5-10.6-39.2-16.8-57.3c-2-5.7-10.5-10.6-25.7-14.6
	c3.5-15.6-7.5-22.1-32.8-19.7c12.2-11.1,34.6-29.6,37.2-43.4c2.1-10.8-9.6-27.1-15.3-37.9c48.2-0.5,95.8-0.5,142.7-0.1
	c17.9,0.2,34.1,5.6,34.3,20.2c0.3,22.9,0.4,45.8,0.3,68.8c0,1.3,0.8,2,2.6,2h59.2c1.3,0,2.5-0.6,3-1.5c18.6-33.5,66-52.1,110.9-40
	c100.6,27.1,64.4,140.4-39.4,130.6c-33-3.1-56.7-17.2-70.8-42.2c-0.6-1.1-2-1.8-3.6-1.8h-59.4c-1.7,0-2.5,0.7-2.5,1.9v130.6
	c0,1.3,0.9,1.9,2.5,1.9h59.1c1.5,0,2.5-0.5,3.1-1.5c16.4-26.7,41.9-40.8,76.6-42.3c75.9-3.4,120.6,59,77.8,106
	c-37.2,40.9-117.3,35.1-148.9-7.1c-0.4-0.4-0.7-0.8-1.1-1.2l-4.6-7c-0.7-1.1-2.1-1.7-3.7-1.7h-57.5c-1.7,0-3.1,1.1-3.1,2.4l-0.1,7.2
	c-0.8,0.2-1.5,0.6-2.1,1.2c-1.1,0.9-1.6,2.2-1.5,3.5c2.2,15.7,5.2,35.7-0.8,50.9c-2,5-2.1,9-0.5,12c-0.8,9.7-9.2,14.7-25.4,14.8
	c-47.8,0.3-96.3,0.4-145.2,0.2c-2.1,0-3.8,1.3-3.8,2.9v84.6c0,1.3,0.9,1.9,2.5,1.9h88.1c1.7,0,3-0.6,3.7-1.8
	c16.8-26.5,42-40.5,75.5-42.1C891,628.6,909,755,787,768h-11.1c-21.6-2.3-40.4-9.1-56.4-20.4c-1.6-1.2-1.7-2.3-0.3-3.4l1.6-0.9
	c0.6-0.3,0.9-0.8,0.9-1.3v-6.3c0-1,0.5-1.2,1.6-0.6c1.9,1,0.1,6.1,3.9,8.7c1.9,1.3,5,0.4,5.3-1.5l3.4-22.9c0.2-1.3-0.6-2.1-2.3-2.2
	c-3.7-0.4-6.2,1-7.4,4c-0.7,1.7-1.5,3.3-2.6,4.9c-1.2,1.8-1.8,1.7-1.8-0.3V722c0-4.1-7-5.7-10-2.3c-3.4,3.9-3.2,8.4,0.4,13.5
	c-0.6,0.1-1.1,0.2-1.7,0.2c-3-3.7-4.4-7.5-4.3-11.3c0.1-5-7.6-7.6-12.5-4.3l-10.5,7.2l-0.7-1.9c0.4-2.2-0.3-3.9-2.1-5.1
	c-1.4-0.9-3-1.2-4.7-0.8c-4.3,1-8.3,3.2-11.9,6.6c-8.4,0.9-13.8,0-16-2.6l-0.5-2.3c-0.3-1.3-1.4-1.9-3.1-1.7
	c-1.8,0.2-3.4,1.2-4.7,2.9h-3.2c-0.6-1-1.4-1.7-2.5-1.9c-1-0.2-1.9,0-2.8,0.7c-2.6,1.9-3.4,4.9-2.5,8.9l-2.3-0.9l-0.2-4.2
	c-0.2-3.1-3.2-5.7-7.3-6.1c-4-0.4-7.9,1.5-9.1,4.4l-5.7,13.7c-0.2,0.4-0.6,0.8-1,1c-0.4,0.2-0.7,0.1-0.6-0.3l2.7-16.4
	c0.3-1.6-1.4-3-3.4-3c-4.4,0-7.7,3.4-10,10.1c-0.8,0-1.5,0-2.3-0.1c2.4-3.4,2.3-6-0.3-7.8c-1.3-0.9-2.7-1.1-4.3-0.7
	c-3.7,1-5.9,3.1-6.7,6.4c-3-0.5-4.4-0.2-4.2,0.8c1.3-3.5,0.4-6-2.5-7.4c-3.9-2-9.3,0.2-13.4,1.3c-7.5-4.4-11.3-9.2-11.3-14.2
	c0.1-37.8,0.1-75.8-0.2-113.9c-0.1-1.3-0.9-2-2.7-2h-53.8c-1.8,0-2.6,0.7-2.6,2c-0.1,23.3,7.4,110.9-7.1,126
	c-7.8-0.7-13.6,1.2-17.5,5.9c-0.9,1-1.8,1.1-3,0.2l-6.9-5.2c-1.3-1-2.7-1.2-4.4-0.7c-7.6,2.3-12.7,6.3-15.2,12.2
	c-1.2-0.3-2.7-0.3-4.3-0.1c1.8-4.1,2-7.5,0.8-10.3c-1-2-2.4-2.3-4.4-0.8l-3.4,2.6c-1.1,0.8-2.2,0.8-3.3,0.1l-4.8-3.2
	c-1.3-0.8-2.6-1-4.2-0.6c-7.5,2.2-12.3,6.1-14.2,11.8c-0.1,0.3-0.5,0.5-0.9,0.4c-0.4,0-0.7-0.3-0.6-0.7l2.6-11
	c0.2-0.6-0.6-1.2-1.5-1c-4,0.7-6.8,3.4-8.4,8.1c-0.6-0.2-1.2-0.3-1.8-0.5l-1.5-4.8c-0.6-1.9-2-2.4-4.2-1.5l-3.4,1.4
	c-1.3,0.5-2.6,0.5-3.8-0.1c-6-2.8-11.2-1.6-15.5,3.7l-4-1.6c-0.3-1-0.2-1.5,0.1-1.7c1-0.5,0.1-1.7-1.4-1.7l-37.3,0.5
	c-1.5,0-2.4,0.6-2.8,1.7l-2.4,6.9c-0.8,2.1-1.7,2.2-3,0.2c-1.5-2.2-1.5-4.4,0-6.5c0.8-1.1,0.4-1.8-1.2-2.1
	c-14.3-3-24.4,0.3-30.3,10.1c-0.8,1.2-1.9,1.4-3.3,0.6l-3.6-2c-1.7-0.9-1.4-2.9,0.5-3.5l7.7-2.6c2.4-0.8,1.5-3.6-1.1-3.5l-34.4,1.6
	c-1,0-1.9-0.1-2.8-0.4c-8.9-3.2-14.8-1.8-17.7,4.3c-0.6,0.2-1.3,0.2-2,0.1c-1.2-4.6-5.7-6.5-13.3-5.6c-2.4,0.3-4.2,1.7-4.6,3.4
	l-5.3,21.7c-0.4,1.3,0.4,2,2.1,2c7.3,0.2,13.2-2.5,17.5-8.1l3.6,0.1c-1.5,2.6-1.9,4.8-1.2,6.8c0.7,1.7,1.9,2,3.8,1.1
	c2.5-1.2,3.7-2.8,3.6-5c-0.1-2,3.4-2.6,4.5-0.9l2.9,4.5c0.8,1.2,3.1,1.2,3.8,0c1.7-2.8,1.3-5.5-1.2-8.1c-0.9-1-0.9-2.2,0-3.1
	l7.6-8.1c1.8-1.9,5.8-0.6,5.2,1.7l-4.2,16.1c-0.5,1.8,0.5,2.7,2.9,2.7h1.5c1.6,0,3-0.8,3.3-2l5.2-19.5c0.3-0.8,1.3-1.4,2.4-1.3
	c1.1,0.2,1.9,1,1.7,1.8l-3.2,19.1c-0.3,1.8,0.7,2.5,3.1,2.2l11.6-1.8c3.3-0.5,3.6-1.5,0.9-3.1c-1.4-0.8-2.9-1.2-4.4-1.1
	c-2.8,0.2-3.9-2.6-1.5-3.7l4.3-1.9c1.6-0.7,2.6-0.4,3,1l3.1,9.6c0.6,1.7,1.9,2.3,4.2,1.9c6.1-1.1,9.9-3.8,11.5-7.9
	c0.6-1.6-2-2.8-3.6-1.6l-2,1.5c-1.8,1.3-4.8,0.3-4.7-1.6c0.3-5.5,3.5-9.4,9.8-11.8c2.8-1,5.9,0.7,5.3,3l-3.3,14.7
	c-0.5,2.1,2.5,3.6,4.9,2.5c3.5-1.7,4.6-4.2,3.2-7.6c-0.3-0.6-0.1-1.2,0.6-1.7l1.2-0.9c1.7-1.3,2.7-1.1,3.1,0.7
	c0.5,2.2,0.1,4.3-1.3,6.3c-0.7,1.1-0.3,1.8,1.3,2.2c2,0.4,3.7,0.2,5-0.8c2.7-1.9,4.2-15.8,6.7-19.8c0.6-1,2.1-1.4,3.4-1.1
	c1.4,0.3,2.2,1.4,1.9,2.4l-4.7,20.7C301,758,280.1,765.9,256.1,768h-11.3c-25.5-2-46.6-10.4-63.3-25c2.7-4.6,2.9-7.5,0.6-8.8
	c-0.4-0.7,0-1.5,1.1-2.4c2.2-1.8,3-4,2.4-6.6c-0.4-1.3-1.3-1.8-3-1.3l-2.9,0.7c-1.5,0.3-3-0.6-2.9-1.8c0.3-1.9-0.7-3.5-2.8-4.8
	c-1-0.6-2.1-0.9-3.4-0.8l-7,0.3l-4.7-24.8c8.4,0.6,13.4-0.6,15.2-3.5c0.8-1.3-0.5-2.8-2.3-2.8h-6.2c-1.4,0-2-1.4-0.8-2
	c7.2-3.6,12.1-8,14.6-13.2c1.8-0.1,3.3,0.3,4.7,1.2c1.3,0.9,1.8,2,1.5,3.3l-3.7,14.5c-0.3,1.1,0.3,1.8,1.6,2.2
	c4.5,1.4,7,0.3,7.5-3.1c0.8-6.1,2.4-12.1,4.8-17.9c0.8-1.8,2-2,3.8-0.7l2.2,1.7c1.3,1,1.8,2.2,1.4,3.6l-3.8,13.7
	c-0.6,2,0.5,2.9,3.1,2.9h2c2.1,0,3.3-0.8,3.7-2.3l6.4-24.9c0.3-1.2-1-2.2-2.5-2l-11.4,1.3c-1.3,0.2-2.5,0-3.6-0.3
	c-5.7-1.8-19.5-1-17.8,6.9l-4-7.4c35.8-37.8,103-41.4,143.6-5.9c0.9,0.8,1.5,1.6,1.6,2.4c0.2,0.8,0.2,1.8,0.1,2.8
	c-6-1.1-12.1-1-18.3,0.4c-1.5,0.3-2.1,1.1-2,2.2c0.3,2,1.7,3.4,4.2,4.1c2.5,0.7,2.7,1.7,0.5,3c-3.1,1.7-4.7,4.1-4.8,7
	c-0.1,1.5,0.9,2.2,2.9,1.8c2.9-0.5,5.5-0.2,8.1,0.9c1.4,0.6,2,1.8,1.4,3c-0.6,1.1-2.2,1.7-3.7,1.3l-4.8-1.2c-2.7-0.7-6,0.2-7.7,1.8
	c-1.6,1.7-1,3.8,1.5,4.7c10.5,4,18.8,0.8,24.8-9.3c1.2-2-0.7-4.3-3.5-4.4c-2.3-0.1-3.7-0.8-4-2.2c-0.4-1.3,0.4-2.2,2-2.7
	c4.5-1.2,6.7-4.1,6.4-8.5c3.9,2.6,6.9,6.1,9.1,10.6c0.7,1.5,2.1,2.3,4.2,2.3h87.2c2.5,0,3.8-1,3.8-2.9v-84.4c0-1-1.1-1.8-2.4-1.9
	c-49.5-0.3-98.7-0.3-147.6-0.1c-11.4,0-20.8-4.8-28.2-14.7l36.1-3.5c2.2-0.2,3.3-1.2,3.3-2.8v-6.1c0-2.1-1.4-3-4-2.6l-17.5,1.9
	c-1.5,0.2-2.7-0.8-2.4-2l4.3-14.2c0.4-1.2,1.8-2,3.4-2h18.6c1.9,0,3-0.7,3.4-2.2l1.7-6.9c0.5-1.8-0.6-2.7-3-2.6l-17.7,0.5
	c-1.9,0-2.6-0.6-2.1-2l4.6-14c0.4-1.2,1.4-1.7,2.9-1.7h21.1c1.8,0,2.9-0.7,3.5-1.9l3.3-7.6c0.7-1.6-0.1-2.3-2.3-2.2l-52,2.6
	c-2.8,1.1-4.7,0.6-6-1.6c1.2-1.1,2.4-2.3,3.5-3.4c-23.2-3.7-45.2-4.6-66.2-2.6c-1.5,0.1-2.6,0.7-3.2,1.8
	c-36.1,62.6-143.4,54.2-169-11.3v-25.8c19.8-67.6,130-73.7,169.5-12.1c0.6,1,1.9,1.6,3.4,1.6h59.2c1.7,0,2.5-0.7,2.5-1.9V318.7
	c0-1.3-0.9-1.9-2.5-1.9h-59.4c-1.8,0-3.3,0.8-4,2c-35.1,61.7-149,54.3-168.7-12v-25.7c20.9-66.9,132.4-73.6,169.4-11.2
	c0.7,1.2,1.9,1.8,3.7,1.8h58.9c1.7,0,2.5-0.7,2.5-1.9c0.2-20.5,0.2-40.9,0.1-61.3c-0.2-17.7,8.2-28,32.2-28
	C328.8,180.4,376.5,180.5,424,180.5 M401.7,540.4c0.4-1.3,2.9-1.2,3.1,0.1l6.2,31.9c0.2,0.7,1,1.2,1.9,1l24.7-2.8
	c0.7-0.1,1.2-0.4,1.3-0.9l23.3-67.8c0.3-0.8-0.6-1.6-1.7-1.5l-17.8,1.1c-0.7,0-1.2,0.4-1.4,0.9l-10.6,30.3c-0.4,1.2-2.7,1.2-3.1,0
	L417.2,503c-0.2-0.5-0.8-0.9-1.6-0.9l-24.7,0.1c-0.8,0-1.4,0.4-1.6,0.9l-22.8,70.2c-0.3,0.9,0.7,1.7,1.9,1.5l21.8-3
	c0.6-0.1,1.1-0.5,1.3-0.9L401.7,540.4 M459.3,570.2c14.9,10.3,44.3,4.1,65.5-13.8c21.3-17.9,26.4-40.7,11.4-51
	c-14.9-10.3-44.3-4.1-65.5,13.8C449.5,537.1,444.4,559.9,459.3,570.2 M600.9,570.2c15,10.3,44.3,4.2,65.6-13.6
	c21.3-17.9,26.4-40.7,11.4-51c-15-10.3-44.3-4.2-65.6,13.6C591,537,585.9,559.9,600.9,570.2 M712.8,558.7
	c-12.7-11.3,10.9-41.4,26.6-46.1c1.8-0.5,3.7-0.1,5,1c8.1,7.2,18.1,8.1,30,2.6c1-0.5,1.4-1.3,1-2.1c-6.2-12.4-19.2-14.9-35.6-12.8
	c-31.5,3.9-50.6,17.6-57.2,41c-14.3,50.8,75.4,41.1,88.1-3.5c0.3-1-0.8-2-2.2-1.8l-38.7,3.5c-2,0.2-3.1,1-3.4,2.5l-0.9,4.5
	c-0.4,1.9,0.7,2.7,3.1,2.4l10.5-1.1c2.3-0.2,3.9,1.6,2.8,3.1C736.9,559.1,721.4,566.4,712.8,558.7 M363.8,553.4
	c-10-5.2-18.3-4.4-24.8,2.5c-4.7,5-15.1,1.6-13.6-4.5c3.2-12.2,10.6-22.6,22.3-30.9c1.4-1,3-1.2,4.7-0.8c8.9,2.2,17.7,1.7,26.4-1.6
	c1.7-0.6,2.4-1.6,2.3-3c-1.2-10.2-13.9-14.1-26.2-12.5c-65.5,8.4-76.4,85.5-20.4,70.3c12.3-3.3,22.2-8.9,29.8-16.8
	C365.5,555.1,365.3,554.2,363.8,553.4 M568.2,560.6c-1.6,0-2.7-1.2-2.2-2.3l21.4-54.3c0.5-1.2-0.8-2.4-2.5-2.3l-26.3,2
	c-1,0.1-1.8,0.6-2,1.3l-21.8,66.5c-0.4,1.2,0.9,2.3,2.4,2.2l46.4-3.2c1.3-0.1,2.2-0.9,2.1-1.8l-0.4-6.5c-0.1-1-1.1-1.7-2.3-1.7
	H568.2 M246.7,683.8c7-2.8,12.2-7,15.3-12.4c0.7-1.2,2.6-1.8,4.2-1.4c1.7,0.5,2.5,1.8,2,3.1l-7,17.1c-0.7,1.6,1.2,3.1,3.3,2.8
	c3-0.4,5-1.3,6.1-3.6c2.8-5.7,5.3-11.5,7.6-17.4c0.6-1.5,1.8-1.9,3.7-1.3l3.8,1.3c1.6,0.5,2.4,1.8,2.1,3.1l-4.1,15.7
	c-0.5,1.7,0.5,2.4,2.7,2.1c4-0.6,6.4-2.5,7.1-6c1.6-7.1,3.2-14.3,5-21.5c0.5-1.7-0.5-2.5-2.8-2.2l-8.3,1.1c-1.5,0.2-2.8,0.1-4.2-0.4
	c-7.5-2.6-14.4-1.9-20.8,2.1c-1.2,0.7-2.4,0.7-3.5,0c-8.6-5.4-15.8-4.2-21.8,3.7c-0.9,1.2-0.6,2.6,0.8,3.5c3.8,2.6,6.7,1.6,8.6-2.9
	c0.6-1.5,1.6-1.6,2.8-0.4l1.9,1.8c1.1,1,0.7,2.6-0.9,3.1c-7.9,2.9-13.8,7.3-17.7,13.1c-1.5,2.3,0.8,4.9,4.1,4.7l15-0.8
	c1.9-0.1,3-0.8,3.4-2.3l0.4-1.5c0.4-1.3-0.3-1.9-2.1-1.9l-5.9,0.2C245.7,686.5,245,684.5,246.7,683.8 M233.4,679.1
	c-0.2-2.2-4.8-3.8-10.2-3.5c-5.4,0.3-9.6,2.4-9.4,4.6c0.2,2.2,4.8,3.8,10.2,3.5C229.5,683.4,233.7,681.3,233.4,679.1"/>
<path class="st30" d="M1015.8,226.1c0,1.8-1.9,3.2-4.2,3.2h-0.3c-2.3,0-4.2-1.5-4.2-3.2v-35.6c0-1.8,1.9-3.2,4.2-3.2h0.3
	c2.3,0,4.2,1.5,4.2,3.2V226.1z"/>
<path class="st33" d="M584,197.8l12.9,4.4c1.7,0.6,2.6,1.6,2.6,3c0.4,8.8-4.8,12.5-15.4,11.3c-2-0.2-3.3,0.3-4,1.8
	c-6.8,13.7-18.7,23.9-35.7,30.6c-1.5,0.5-2.5,1.6-2.7,2.8c-0.6,3,0.4,6.3,2.8,9.8c-18.8,2.5-37.7,2.5-56.9,0.1c2.9-4,4-7.6,3.4-10.7
	c-0.3-1.3-1.1-2.3-2.7-2.9c-16.3-6.6-27.7-16.5-34.2-29.6c-0.7-1.3-1.9-1.9-3.8-1.7c-11.2,1-16.6-2.7-16.3-11.3
	c-0.1-2.3,0.9-3.8,3.1-4.5C483.5,187.8,532.4,186.8,584,197.8 M469.5,207.4v5.8c0,1.9,1.3,2.9,3.8,2.9h29c1.3,0,2.4-0.5,3-1.4
	l4.6-6.5c0.7-1,1.8-1.6,3.3-1.7c8.8-0.9,13.9,1.7,15.4,7.9c0.4,1.6,1.7,2.4,3.8,2.4l28.9-0.1c1.9,0,2.9-0.7,2.9-2.2v-7.3
	c0-1.3,0.9-1.9,2.5-1.9l13.3,0.3c1.2,0,2.2-0.6,2.4-1.5c0.2-0.9-0.5-1.7-1.6-2c-15.6-3.8-31.3-4.9-47.1-3.3
	c-9,0.9-16.7,6.6-27.8,0.5c-1.5-0.8-3.1-1.2-4.8-1.1l-47.9,2.8c-1.6,0.1-2.8,1.1-2.8,2.3c0.1,1.2,1.4,2.2,3,2.2H467
	C468.7,205.4,469.5,206.1,469.5,207.4"/>
<path class="st29" d="M999.3,197.1c0.9,0,1.6,0.6,1.6,1.3l-0.1,5.1c-0.1,3.4-4.2,6.1-9.2,6l-53.5-0.5c-5-0.1-9.1-2.8-9-6.2l0.1-5.1
	c0-0.7,0.8-1.2,1.6-1.2L999.3,197.1z"/>
<path class="st34" d="M467,205.4h-13.8c-1.6,0-2.9-1-3-2.2c-0.1-1.2,1.2-2.3,2.8-2.3l47.9-2.8c1.8-0.1,3.4,0.3,4.8,1.1
	c11,6.1,18.8,0.4,27.8-0.5c15.7-1.6,31.4-0.5,47.1,3.3c1.1,0.3,1.8,1.1,1.6,2c-0.2,0.9-1.2,1.5-2.4,1.5l-13.3-0.3
	c-1.7,0-2.5,0.6-2.5,1.9v7.3c0,1.5-1,2.2-2.9,2.2l-28.9,0.1c-2.1,0-3.4-0.8-3.8-2.4c-1.5-6.1-6.7-8.8-15.4-7.9
	c-1.5,0.2-2.6,0.7-3.3,1.7l-4.6,6.5c-0.6,0.8-1.7,1.4-3,1.4h-29c-2.5,0-3.8-1-3.8-2.9v-5.8C469.5,206.1,468.7,205.4,467,205.4"/>
<path class="st31" d="M434,205.3c-0.3,8.6,5.1,12.4,16.3,11.3c1.9-0.2,3.1,0.4,3.8,1.7c6.5,13.1,17.9,23,34.2,29.6
	c1.6,0.7,2.4,1.6,2.7,2.9c0.6,3.1-0.6,6.7-3.4,10.7l-38.8,1.2c-23.4-17.6-36.5-34.6-39.3-51.1C420.2,207.1,428.4,205.1,434,205.3"/>
<path class="st29" d="M487.5,261.6c19.1,2.4,38.1,2.4,56.9-0.1l41.4,0.5c25.3-2.5,36.3,4.1,32.8,19.7l-0.1,59.2
	c-0.8,1.3-2,2-3.9,2.1c-65.9,1.1-132,1.2-198.1,0.3l-0.3-61.1l0.3-10.7c0.1-4,4.2-7.3,9.5-7.6l22.7-1.1L487.5,261.6z M531.1,306.5
	c0-6.1-6.5-11.1-14.5-11.1c-8,0-14.5,5-14.5,11.1c0,6.1,6.5,11.1,14.5,11.1C524.6,317.6,531.1,312.7,531.1,306.5"/>
<path class="st32" d="M416.2,282.1l0.3,61.1l-9.2,0.5c-1.7,0.1-2.9,0.7-3.8,1.8c-2,2.7-1.4,5.9,1.9,9.6l-19.1-0.1
	c-5.8,1-10,0.5-12.9-1.5c-1.3-0.8-1.8-2.2-1.5-3.4c8.2-27.5,13.7-44.7,16.6-51.9C391.9,290.1,401.1,284.7,416.2,282.1"/>
<path class="st31" d="M618.5,281.7c15.2,4,23.7,8.9,25.7,14.6c6.2,18,17.4,38.8,16.8,57.3c-0.1,1.2-1.2,2.1-2.8,2.2l-11,0.7L627,356
	c10.4-7.7,2.1-12.8-8.6-15.1L618.5,281.7z"/>
<path class="st30" d="M531.1,306.5c0,6.1-6.5,11.1-14.5,11.1c-8,0-14.5-5-14.5-11.1c0-6.1,6.5-11.1,14.5-11.1
	C524.6,295.5,531.1,300.4,531.1,306.5"/>
<path class="st35" d="M618.5,340.9c10.6,2.3,19,7.4,8.6,15.1l-39.7-0.1l-141.2-0.6l-40.8-0.2c-3.3-3.7-3.9-6.9-1.9-9.6
	c0.9-1.1,2.1-1.7,3.8-1.8l9.2-0.5c66.1,1,132.2,0.8,198.1-0.3C616.4,343,617.7,342.3,618.5,340.9"/>
<path class="st36" d="M386.2,355.1l19.1,0.1l40.8,0.2l-0.5,32.4c-14.9-3.9-29.7-3.8-44.4,0.3c-1.6,0.4-2.6,1.3-2.9,2.6l-8.6,32.9
	l-4.4-0.2c5.3-9.7,5.6-19.7,0.7-29.9L386.2,355.1z"/>
<path d="M446.2,355.3l141.2,0.6l0.6,29.2l-27.7,2.4c-1.9,0.2-3.1,1-3.4,2.4l-12.2,49c-4.7-1.5-9.4-1.7-14.2-0.4l7.9-36.3
	c0.3-1.3,1.3-2,3.1-2h5.5c2,0,3.2-0.8,3.6-2.3l2.7-10.4c0.4-1.4-0.4-2.1-2.3-2l-41.8,1.6c-1.7,0.1-2.7,0.8-2.8,2.1l-1.1,8.3
	c-0.2,1.2,0.5,1.8,2.1,1.8h6.6c2.4,0,3.4,0.9,3,2.8l-8.5,36.6c-17.8-1.8-35.6-1.5-53.4,0.9l-8.4-0.1l-1.5-31.3
	c3.4-6.8,3.5-13.7,0.4-20.5L446.2,355.3z"/>
<path class="st36" d="M627,356l20.2,0.5l-0.6,31.4c-32-10.9-52.8,18.1-57.2,37.6c-1.5-0.3-2.9-0.3-4.2-0.2c2.6-4.6,3.3-8.6,2.2-11.7
	l0.8-16.6c5.4,0.1,8.5-3.3,9.2-10.2c0.2-1.2-0.6-1.8-2.2-1.8l-7.4,0.1l-0.6-29.2L627,356z"/>
<path class="st30" d="M645.6,457.2c-4.7,2-6.6,1.3-5.8-2.2c3.5-13.7,6.5-26.4,8.8-38.2l6.7-30c0.3-1.2,1.7-2.1,3.4-2l14.5,1.3
	c1.8,0.2,2.5,1,2.2,2.3l-6.6,22.8c-0.6,2.1,0.5,3,3.3,2.5l6.3-1c1.9-0.3,2.9-1.1,3.3-2.5l6.1-23.1c0.3-1.2,1.5-2,3-2.1l15-1
	c1.5-0.1,2.7,1,2.3,2.1c-6.4,18.7-11.2,37.5-14.4,56.4c-1.7,10.1-5.9,14.4-19.8,11.3c-1.6-0.3-2.2-1.1-1.9-2.3l6.3-24
	c0.3-1-0.2-1.6-1.4-2c-3.9-1.3-7-1.1-9.4,0.7c-1.4,1-2.4,3-3,5.7c-1.5,6.7-3.1,13.4-4.8,20.1c-0.3,1.3-1.3,2.1-2.9,2.4L645.6,457.2z
	"/>
<path class="st30" d="M386,393.3c4.9,10.2,4.6,20.2-0.7,29.9c-8.2,19-25.6,30.8-52.1,35.5c-4.4,0.8-8.5-2.2-7.7-5.6l15.3-62.7
	c0.4-1.4,1.4-2.3,3.1-2.9C361.7,382.2,375.6,384.1,386,393.3 M364.5,399.4c-2.4-1.2-5.7-0.2-6.2,2l-10.5,41
	c-0.7,2.8,0.2,3.1,2.5,0.9C358.7,435.6,379.8,407.1,364.5,399.4"/>
<path class="st30" d="M445.7,387.7c3.1,6.8,3,13.7-0.4,20.5l-17.4,14.3c-1.2,1-1.5,2.1-0.8,3.3l10.2,17.3c0.8,1.3,2,1.7,3.6,1.1
	c2.7-1,4.6-2.5,5.8-4.6l8.4,0.1c19.1,8.6,8.8,22.3-9.8,19.8c-1.9-0.2-3.2-1-4-2.2l-2.6-3.9c-0.7-1-2.3-1.5-3.8-1.1l-11.5,3.3
	c-1.6,0.5-2.7,0.1-3.1-1.2l-8.8-23.3c-0.5-1.2-2.8-1.1-3.1,0.1l-5.1,20.2c-0.4,1.3-1.7,2.4-3.4,2.8l-15,2.9
	c-1.1-9.8,0.6-20.9,4.8-33.4l8.6-32.9c0.4-1.3,1.3-2.2,2.9-2.6C416.1,383.9,430.8,383.8,445.7,387.7 M430.6,399.1l-10.7-0.9
	c-2-0.2-3.9,0.9-4.2,2.5l-2.7,11.9c-0.5,1.9,2.6,3.2,4.5,1.9l15.2-10.2C435.3,402.6,434,399.4,430.6,399.1"/>
<path class="st30" d="M530.4,438.6l-3,13.7c-0.4,1.6-1.5,2.5-3.6,2.7l-16.3,2.2c-2.1,0.3-2.9-0.4-2.6-2l3.6-16.5l8.5-36.6
	c0.4-1.8-0.6-2.8-3-2.8h-6.6c-1.6,0-2.2-0.6-2.1-1.8l1.1-8.3c0.2-1.3,1.1-2,2.8-2.1l41.8-1.6c1.9-0.1,2.7,0.6,2.3,2l-2.7,10.4
	c-0.4,1.5-1.6,2.3-3.6,2.3h-5.5c-1.8,0-2.8,0.7-3.1,2L530.4,438.6z"/>
<path class="st30" d="M587.9,385.1l7.4-0.1c1.6,0,2.4,0.6,2.2,1.8c-0.8,6.9-3.8,10.3-9.2,10.2c-3.7-0.8-7.2-0.9-10.4-0.3
	c-1.7,0.3-2.6,1.2-3,2.4l-3.3,12.8c-0.4,1.2,0.3,1.8,2,1.8l14-0.1c1.1,3.1,0.4,7-2.2,11.7l-14.5,0.2c-1.6,0-2.4,0.6-2.6,1.8
	l-1.9,14.1c-0.3,2,0.6,2.3,2.5,1c3.8-2.6,8.2-3.4,13.2-2.5l0.9,10.5c0.2,1.5-0.8,2.3-2.6,2.5l-37.2,4.3c-1.9,0.2-2.7-0.4-2.4-1.8
	l3.9-16.3l12.2-49c0.4-1.5,1.5-2.3,3.4-2.4L587.9,385.1z"/>
<path class="st30" d="M646.7,387.9c5.8,9.8,4.2,14.9-4.5,15.2c-19.9-1.3-30.7,10.4-32.3,34.8c-0.2,2.8,4.3,4.3,6.9,2.2l8.3-6.8
	c0.9-0.7,2-1,3.3-0.6l7.8,2c2.1,0.5,2.7,1.6,1.8,3.1c-10.2,19-43,32.1-49.7,0.8l1.3-13.2C593.9,406,614.7,377,646.7,387.9"/>
<path d="M588.3,397l-0.8,16.6l-14,0.1c-1.7,0-2.3-0.6-2-1.8l3.3-12.8c0.4-1.3,1.3-2.1,3-2.4C581.1,396.1,584.6,396.1,588.3,397"/>
<path class="st36" d="M430.6,399.1c3.3,0.3,4.6,3.5,2.1,5.1l-15.2,10.2c-1.9,1.3-5,0-4.5-1.9l2.7-11.9c0.4-1.5,2.2-2.6,4.2-2.5
	L430.6,399.1z"/>
<path d="M364.5,399.4c15.3,7.8-5.8,36.3-14.2,43.9c-2.4,2.2-3.2,1.8-2.5-0.9l10.5-41C358.8,399.2,362.1,398.2,364.5,399.4"/>
<path class="st36" d="M642.2,403.1c2.7,2.7,4.8,7.3,6.5,13.8c-2.4,11.8-5.3,24.5-8.8,38.2c-0.9,3.4,1.1,4.1,5.8,2.2
	c4.5,19.3-11.1,25.7-34.1,25.7c-62.9,0-125.7,0-188.6,0c-12.9,0-21.6-1.5-26.4-4.5c-7-4.4-10.8-11.6-11.6-21.5l15-2.9
	c1.7-0.3,3-1.4,3.4-2.8l5.1-20.2c0.3-1.2,2.6-1.3,3.1-0.1l8.8,23.3c0.5,1.3,1.5,1.7,3.1,1.2l11.5-3.3c1.5-0.4,3.1,0.1,3.8,1.1
	l2.6,3.9c0.9,1.3,2.2,2,4,2.2c18.6,2.5,28.9-11.3,9.8-19.8c17.8-2.4,35.6-2.7,53.4-0.9l-3.6,16.5c-0.4,1.6,0.5,2.3,2.6,2l16.3-2.2
	c2.1-0.3,3.2-1.2,3.6-2.7l3-13.7c4.7-1.3,9.5-1.1,14.2,0.4l-3.9,16.3c-0.4,1.5,0.5,2.1,2.4,1.8l37.2-4.3c1.9-0.2,2.8-1.1,2.6-2.5
	l-0.9-10.5c2,0.1,4-0.3,6.2-1.1c6.7,31.3,39.5,18.2,49.7-0.8c0.9-1.5,0.3-2.5-1.8-3.1l-7.8-2c-1.3-0.3-2.4-0.1-3.3,0.6l-8.3,6.8
	c-2.6,2.1-7.1,0.6-6.9-2.2C611.5,413.5,622.3,401.8,642.2,403.1"/>
<path class="st36" d="M445.3,408.2l1.5,31.3c-1.1,2.2-3,3.7-5.8,4.6c-1.7,0.6-2.9,0.2-3.6-1.1l-10.2-17.3c-0.7-1.2-0.5-2.3,0.8-3.3
	L445.3,408.2z"/>
<path d="M585.3,425.3c1.4-0.2,2.8-0.1,4.2,0.2l-1.3,13.2c-2.2,0.8-4.2,1.2-6.2,1.1c-5-0.9-9.4-0.1-13.2,2.5c-1.9,1.3-2.8,1-2.5-1
	l1.9-14.1c0.2-1.2,1-1.8,2.6-1.8L585.3,425.3z"/>
<path class="st36" d="M854,505l-22.8-1.9c-1.6-0.2-3.2,0.5-3.9,1.6l-14.7,23.5c-1.7,2.7-2.6,2.6-2.6-0.4v-21.7c0-2-2.4-3.5-5-3.1
	l-20,3l0.1-7.2c0-1.3,1.4-2.4,3.1-2.4h57.5c1.6,0,3,0.7,3.7,1.7L854,505z"/>
<path class="st37" d="M401.7,540.4l-10.1,30.5c-0.2,0.5-0.7,0.8-1.3,0.9l-21.8,3c-1.2,0.2-2.2-0.6-1.9-1.5l22.8-70.2
	c0.2-0.5,0.8-0.9,1.6-0.9l24.7-0.1c0.8,0,1.4,0.4,1.6,0.9l10.2,29.8c0.5,1.2,2.7,1.2,3.1,0l10.6-30.3c0.2-0.5,0.8-0.9,1.4-0.9
	l17.8-1.1c1.1-0.1,2,0.7,1.7,1.5l-23.3,67.8c-0.2,0.5-0.7,0.8-1.3,0.9l-24.7,2.8c-0.9,0.1-1.7-0.3-1.9-1l-6.2-31.9
	C404.6,539.2,402.1,539.1,401.7,540.4"/>
<path class="st37" d="M459.3,570.2c-14.9-10.3-9.8-33.1,11.4-51c21.2-17.9,50.5-24.1,65.5-13.8c14.9,10.3,9.8,33.1-11.4,51
	C503.5,574.3,474.2,580.5,459.3,570.2 M481.6,557.3c6.9,3.9,20.1-0.7,29.5-10.3c9.4-9.6,11.6-20.6,4.7-24.5
	c-6.9-3.9-20.1,0.7-29.5,10.3C476.9,542.5,474.7,553.5,481.6,557.3"/>
<path class="st37" d="M600.9,570.2c-15-10.3-9.9-33.2,11.4-51c21.2-17.9,50.6-24,65.6-13.6c15,10.3,9.9,33.2-11.4,51
	C645.2,574.4,615.8,580.5,600.9,570.2 M623.1,557.5c7,3.9,20.2-0.7,29.7-10.3c9.4-9.6,11.5-20.7,4.5-24.6c-7-3.9-20.2,0.7-29.7,10.3
	C618.2,542.5,616.1,553.5,623.1,557.5"/>
<path class="st37" d="M712.8,558.7c8.6,7.7,24.1,0.4,29.1-6.7c1.1-1.5-0.6-3.3-2.8-3.1l-10.5,1.1c-2.5,0.3-3.5-0.5-3.1-2.4l0.9-4.5
	c0.3-1.5,1.5-2.3,3.4-2.5l38.7-3.5c1.4-0.1,2.5,0.8,2.2,1.8c-12.7,44.5-102.4,54.3-88.1,3.5c6.6-23.4,25.6-37.1,57.2-41
	c16.4-2,29.4,0.5,35.6,12.8c0.4,0.8,0,1.7-1,2.1c-11.9,5.5-21.8,4.6-30-2.6c-1.3-1.1-3.2-1.5-5-1
	C723.8,517.3,700.1,547.4,712.8,558.7"/>
<path class="st37" d="M249.7,573.8l-15.2,0.8c-1.7,0.1-2.9-1.1-2.5-2.3l23.1-67.8l52-2.6c2.2-0.1,2.9,0.6,2.3,2.2l-3.3,7.6
	c-0.6,1.3-1.7,1.9-3.5,1.9h-21.1c-1.6,0-2.6,0.6-2.9,1.7l-4.6,14c-0.5,1.3,0.3,2,2.1,2l17.7-0.5c2.5-0.1,3.5,0.8,3,2.6l-1.7,6.9
	c-0.4,1.4-1.5,2.2-3.4,2.2H273c-1.6,0-3,0.8-3.4,2l-4.3,14.2c-0.4,1.1,0.9,2.1,2.4,2l17.5-1.9c2.7-0.3,4,0.6,4,2.6v6.1
	c0,1.7-1.1,2.6-3.3,2.8L249.7,573.8z"/>
<path class="st37" d="M252.6,499.5c-1.2,1.2-2.4,2.3-3.5,3.4l-3.3,11.4c-0.4,1.1-1.3,1.7-2.8,1.8l-11.7,0.7
	c-1.7,0.1-2.8,0.8-3.1,2.1l-15,51.3c-0.3,1-1.3,1.7-2.6,1.8l-26,2.3c-2,0.2-2.8-0.5-2.3-2l17.9-52.9c0.5-1.5-1-3-3.1-3h-11.9
	c-1.7,0-2.9-1.2-2.5-2.5l2.7-8.3c0.5-1.6,1.8-2.3,3.9-2.1C208.3,505.2,229.3,503.9,252.6,499.5"/>
<path class="st37" d="M363.8,553.4c1.5,0.8,1.7,1.7,0.6,2.8c-7.6,7.9-17.6,13.5-29.8,16.8c-56,15.2-45.2-61.9,20.4-70.3
	c12.3-1.6,25,2.3,26.2,12.5c0.2,1.4-0.6,2.4-2.3,3c-8.7,3.2-17.5,3.8-26.4,1.6c-1.8-0.4-3.4-0.2-4.7,0.8
	c-11.7,8.3-19.1,18.7-22.3,30.9c-1.6,6.1,8.8,9.5,13.6,4.5C345.5,549,353.8,548.2,363.8,553.4"/>
<path class="st37" d="M568.2,560.6H583c1.3,0,2.3,0.7,2.3,1.7l0.4,6.5c0.1,1-0.9,1.8-2.1,1.8l-46.4,3.2c-1.6,0.1-2.8-1-2.4-2.2
	l21.8-66.5c0.3-0.7,1.1-1.2,2-1.3l26.3-2c1.7-0.1,3,1.1,2.5,2.3l-21.4,54.3C565.5,559.5,566.6,560.6,568.2,560.6"/>
<path d="M481.6,557.3c-6.9-3.9-4.7-14.9,4.7-24.5c9.4-9.6,22.6-14.3,29.5-10.3c6.9,3.9,4.7,14.9-4.7,24.5
	C501.7,556.6,488.5,561.3,481.6,557.3"/>
<path d="M623.1,557.5c-7-3.9-4.9-15,4.5-24.6c9.5-9.6,22.7-14.3,29.7-10.3c7,3.9,4.9,15-4.5,24.6C643.3,556.8,630,561.4,623.1,557.5
	"/>
<path class="st30" d="M247.7,686.4l5.9-0.2c1.8,0,2.4,0.6,2.1,1.9l-0.4,1.5c-0.4,1.4-1.5,2.2-3.4,2.3l-15,0.8
	c-3.3,0.2-5.7-2.5-4.1-4.7c3.9-5.8,9.7-10.2,17.7-13.1c1.6-0.6,2-2.1,0.9-3.1l-1.9-1.8c-1.3-1.2-2.2-1.1-2.8,0.4
	c-1.9,4.5-4.8,5.5-8.6,2.9c-1.3-0.9-1.6-2.3-0.8-3.5c6-7.9,13.2-9.1,21.8-3.7c1.2,0.7,2.4,0.7,3.5,0c6.4-4,13.4-4.6,20.8-2.1
	c1.4,0.5,2.7,0.6,4.2,0.4l8.3-1.1c2.3-0.3,3.3,0.4,2.8,2.2c-1.8,7.2-3.4,14.4-5,21.5c-0.8,3.4-3.1,5.4-7.1,6
	c-2.3,0.3-3.2-0.4-2.7-2.1l4.1-15.7c0.3-1.3-0.6-2.6-2.1-3.1l-3.8-1.3c-1.9-0.7-3.1-0.2-3.7,1.3c-2.3,6-4.8,11.8-7.6,17.4
	c-1.1,2.3-3.1,3.2-6.1,3.6c-2.1,0.3-3.9-1.3-3.3-2.8l7-17.1c0.5-1.3-0.4-2.6-2-3.1c-1.7-0.5-3.5,0.2-4.2,1.4
	c-3.2,5.5-8.3,9.6-15.3,12.4C245,684.5,245.7,686.5,247.7,686.4"/>
<path class="st30" d="M320.8,663.1c1.9,2.3,2.8,2.9,2.9,1.8c0.3,4.5-1.8,7.3-6.4,8.5c-1.7,0.5-2.4,1.4-2,2.7c0.4,1.4,1.7,2.1,4,2.2
	c2.9,0.1,4.7,2.4,3.5,4.4c-6,10.2-14.2,13.3-24.8,9.3c-2.5-0.9-3.1-3-1.5-4.7c1.7-1.7,5-2.5,7.7-1.8l4.8,1.2
	c1.5,0.4,3.1-0.2,3.7-1.3c0.6-1.1,0-2.4-1.4-3c-2.6-1-5.2-1.3-8.1-0.9c-2,0.3-2.9-0.3-2.9-1.8c0.1-3,1.7-5.3,4.8-7
	c2.2-1.2,2-2.2-0.5-3c-2.6-0.7-4-2.1-4.2-4.1c-0.2-1.2,0.5-1.9,2-2.2C308.7,662.1,314.8,662,320.8,663.1"/>
<path class="st30" d="M179.5,671.2c-1.7-7.9,12.2-8.8,17.8-6.9c1.2,0.4,2.4,0.5,3.6,0.3l11.4-1.3c1.5-0.2,2.8,0.8,2.5,2l-6.4,24.9
	c-0.4,1.6-1.7,2.3-3.7,2.3h-2c-2.6,0-3.6-1-3.1-2.9l3.8-13.7c0.4-1.4-0.1-2.6-1.4-3.6l-2.2-1.7c-1.8-1.3-3-1.1-3.8,0.7
	c-2.5,5.9-4.1,11.8-4.8,17.9c-0.5,3.5-2.9,4.6-7.5,3.1c-1.4-0.4-1.9-1.2-1.6-2.2l3.7-14.5c0.3-1.3-0.2-2.4-1.5-3.3
	C182.8,671.5,181.3,671.2,179.5,671.2"/>
<path class="st30" d="M233.4,679.1c0.2,2.2-4,4.3-9.4,4.6c-5.4,0.3-10-1.3-10.2-3.5c-0.2-2.2,4-4.3,9.4-4.6
	C228.6,675.3,233.2,676.8,233.4,679.1"/>
<path class="st30" d="M217.4,722.8c0.2,4.8-1.1,9.3-3.6,13.4c-4.3,5.6-10.2,8.3-17.5,8.1c-1.8,0-2.5-0.7-2.1-2l5.3-21.7
	c0.4-1.8,2.3-3.1,4.6-3.4C211.8,716.3,216.2,718.2,217.4,722.8 M206.4,724.1l-4.3,13.4c-1.6,4.8-0.6,5.1,2.9,0.9
	c3.6-4.3,5.5-8.9,5.9-13.8c0.1-0.9-0.8-1.7-1.9-1.8C207.8,722.6,206.7,723.2,206.4,724.1"/>
<path class="st30" d="M352.3,720.8l-6.3,2.6c-1.5,0.6-1.9,1.5-1.3,2.7l1.4,2.9c0.7,1.3,0.4,2.5-0.9,3.5c-3,2.4-2.6,5,1.3,7.6
	c2.2,1.5,1.9,2.5-1.1,2.9l-9.4,1.3c-2.3,0.3-3.3-0.4-2.9-2.2l3.8-18.9c0.4-1.8-0.6-2.3-2.7-1.5c-0.6,0.2-1.3,0.4-2.1,0.6
	c-1,0.2-1.7,0.9-1.8,1.7c-0.7,13.6-4.5,20.4-11.6,20.4l4.7-20.7c0.3-1-0.6-2.1-1.9-2.4c-1.3-0.3-2.8,0.2-3.4,1.1
	c-2.5,4-4,17.9-6.7,19.8c-1.4,1-3.1,1.2-5,0.8c-1.6-0.3-2-1-1.3-2.2c1.3-2,1.7-4.1,1.3-6.3c-0.4-1.8-1.5-2-3.1-0.7l-1.2,0.9
	c-0.6,0.4-0.8,1.1-0.6,1.7c1.4,3.4,0.3,6-3.2,7.6c-2.4,1.1-5.3-0.4-4.9-2.5l3.3-14.7c0.5-2.3-2.6-4.1-5.3-3
	c-6.3,2.3-9.6,6.3-9.8,11.8c-0.1,1.9,3,2.9,4.7,1.6l2-1.5c1.6-1.2,4.2,0,3.6,1.6c-1.6,4.1-5.3,6.8-11.5,7.9
	c-2.3,0.4-3.6-0.2-4.2-1.9l-3.1-9.6c-0.5-1.3-1.5-1.7-3-1l-4.3,1.9c-2.4,1.1-1.3,3.9,1.5,3.7c1.6-0.1,3.1,0.3,4.4,1.1
	c2.7,1.5,2.4,2.6-0.9,3.1l-11.6,1.8c-2.4,0.4-3.4-0.3-3.1-2.2l3.2-19.1c0.2-0.8-0.6-1.7-1.7-1.8c-1.1-0.1-2.2,0.4-2.4,1.3L250,742
	c-0.3,1.2-1.7,2-3.3,2h-1.5c-2.4,0-3.4-0.9-2.9-2.7l4.2-16.1c0.6-2.3-3.4-3.6-5.2-1.7l-7.6,8.1c-0.9,0.9-0.9,2.2,0,3.1
	c2.4,2.6,2.8,5.3,1.2,8.1c-0.8,1.2-3,1.3-3.8,0l-2.9-4.5c-1.2-1.8-4.6-1.1-4.5,0.9c0.1,2.2-1.1,3.8-3.6,5c-1.9,0.9-3.2,0.5-3.8-1.1
	c-0.8-2-0.4-4.2,1.2-6.8c2.3-4.2,3-8.8,2.1-13.6c2.9-6.1,8.7-7.5,17.7-4.3c0.9,0.3,1.8,0.4,2.8,0.4l34.4-1.6
	c2.6-0.1,3.5,2.6,1.1,3.5l-7.7,2.6c-1.9,0.7-2.2,2.6-0.5,3.5l3.6,2c1.4,0.8,2.5,0.6,3.3-0.6c6-9.7,16-13.1,30.3-10.1
	c1.6,0.3,2,1,1.2,2.1c-1.5,2.1-1.5,4.2,0,6.5c1.3,1.9,2.2,1.8,3-0.2l2.4-6.9c0.4-1.1,1.3-1.6,2.8-1.7l37.3-0.5
	c1.5,0,2.4,1.2,1.4,1.7C352.1,719.3,352,719.9,352.3,720.8 M226.8,725.1c-0.6,1.7,0.3,2.3,2.4,1.7l4-1.2c2.6-0.8,2.6-1.6,0.1-2.4
	C229.7,722.1,227.5,722.7,226.8,725.1"/>
<path class="st30" d="M384.8,723.7l-7.5,17.9c-0.5,1.2-1.5,1.9-3.1,2.3c-3.4,0.8-5.5-0.1-6.3-2.7c3.8-4.2,5.7-9.6,5.5-16.2
	c0-1-0.7-1.4-2-1.3c-8.9,1.1-13.2,5.2-12.9,12.3c0.1,1.9,1.1,2.3,3.1,1.2l2.5-1.4c0.8-0.5,1.6-0.5,2.5,0c1.6,0.9,2,2.7,1.4,5.5
	c-8.9,4.4-14.6,4.4-17,0c-4.3-7.9-2.5-14.1,5.3-18.7c4.3-5.3,9.5-6.5,15.5-3.7c1.2,0.6,2.5,0.6,3.8,0.1l3.4-1.4
	c2.2-0.9,3.6-0.4,4.2,1.5L384.8,723.7z"/>
<path class="st30" d="M682.4,723.1c-8.7,0.9-13.6,5.1-14.5,12.7c-0.2,1.1,1.5,1.8,2.7,1.2c0.8-0.4,1.9-0.6,3.6-0.5
	c2.9,0.1,4.6,1.9,4,4.1c-0.7,2.2-3.4,4-6.4,4.2c-17.9,1.2-11.3-14.4-8.1-21c3.6-3.3,7.5-5.5,11.9-6.6c1.8-0.4,3.4-0.2,4.7,0.8
	C682.1,719.2,682.8,720.8,682.4,723.1"/>
<path class="st30" d="M710.5,733.4l1.2,9.4c-2.2,1.3-4.5,1.6-7.1,0.8c-2.1-0.6-2.5-1.7-1.3-3.1c1.2-1.4,1.3-2.9,0.1-4.6
	c-1.4-2-2.3-1.8-2.8,0.3c-0.9,3.7-3.8,6.3-8.7,7.8c-7.3,2.2-14.8-3-12.6-8.7l3.9-10.4l10.5-7.2c4.9-3.3,12.6-0.7,12.5,4.3
	C706.1,726,707.5,729.7,710.5,733.4 M689,737.4c1.9,0.9,5.5-1.2,8-4.5c2.4-3.3,2.9-6.7,0.9-7.5c-1.9-0.9-5.5,1.2-8,4.5
	C687.5,733.2,687,736.6,689,737.4"/>
<path class="st30" d="M719.3,744.2c-1.4-0.1-2.6-0.5-3.8-1.3l-3.4-9.6c-3.6-5.1-3.7-9.6-0.4-13.5c3-3.4,10-1.8,10,2.3v3.7
	c0,2,0.6,2.2,1.8,0.3c1.1-1.7,2-3.3,2.6-4.9c1.2-3.1,3.7-4.4,7.4-4c1.7,0.2,2.5,0.9,2.3,2.2l-3.4,22.9c-0.3,2-3.4,2.8-5.3,1.5
	c-3.8-2.6-2-7.7-3.9-8.7c-1.1-0.6-1.6-0.3-1.6,0.6v6.3c0,0.5-0.3,1-0.9,1.3L719.3,744.2z"/>
<path d="M206.4,724.1c0.3-0.8,1.4-1.4,2.5-1.3c1.2,0.1,2,0.9,1.9,1.8c-0.3,5-2.3,9.6-5.9,13.8c-3.5,4.2-4.5,3.9-2.9-0.9L206.4,724.1
	z"/>
<path class="st34" d="M217.4,722.8c0.8,0.1,1.5,0.1,2-0.1c1,4.8,0.3,9.4-2.1,13.6l-3.6-0.1C216.4,732.1,217.6,727.6,217.4,722.8"/>
<path d="M226.8,725.1c0.8-2.4,2.9-3,6.5-1.9c2.6,0.8,2.6,1.7-0.1,2.4l-4,1.2C227,727.4,226.2,726.8,226.8,725.1"/>
<path class="st34" d="M710.5,733.4c0.6,0,1.1-0.1,1.7-0.2l3.4,9.6c-1.3,0.3-2.6,0.3-3.9,0L710.5,733.4z"/>
<path class="st30" d="M182.1,734.2c2.3,1.3,2.1,4.2-0.6,8.8c-1.5,0.2-2.9-0.1-4.2-1c-1-0.7-1.5-1.6-1.5-2.8
	C175.7,736.1,177.8,734.4,182.1,734.2"/>
<path d="M342.8,700.1c0,37.5-41.7,67.9-93.1,67.9c-51.4,0-93.1-30.4-93.1-67.9s41.7-67.9,93.1-67.9
	C301.1,632.3,342.8,662.7,342.8,700.1"/>
<path d="M189.2,294.6c0,37.5-41.7,67.9-93.1,67.9C44.7,362.5,3,332.1,3,294.6c0-37.5,41.7-67.9,93.1-67.9
	C147.5,226.8,189.2,257.2,189.2,294.6"/>
<path d="M189.2,474.2c0,37.5-41.7,67.9-93.1,67.9C44.7,542.1,3,511.7,3,474.2s41.7-67.9,93.1-67.9
	C147.5,406.3,189.2,436.7,189.2,474.2"/>
<path d="M1024,294.6c0,37.5-41.7,67.9-93.1,67.9c-51.4,0-93.1-30.4-93.1-67.9c0-37.5,41.7-67.9,93.1-67.9
	C982.3,226.8,1024,257.2,1024,294.6"/>
<path d="M874,700.1c0,37.5-41.7,67.9-93.1,67.9c-51.4,0-93.1-30.4-93.1-67.9s41.7-67.9,93.1-67.9C832.3,632.3,874,662.7,874,700.1"
	/>
<rect x="331.7" y="678.2" width="126.8" height="50.7"/>
<path class="st38" d="M447.1,728.6c0,0,35.5,6.3,39.3-28.5"/>
<path d="M547.8,701.9L547.8,701.9c0.3,15.5,13.7,28,30.1,28h126.8l-2.3-30.7L547.8,701.9z"/>
<path class="st37" d="M854,505c0.4,0.4,0.7,0.8,1.1,1.2c-15.8,20.8-36.8,38.6-46.2,62.1c-0.5,1.2-1.9,2.2-3.5,2.3l-25.1,2.8
	c-1.7-3-1.5-7,0.5-12c6-15.2,2.9-35.2,0.8-50.9c-0.2-1.3,0.4-2.5,1.5-3.5c0.7-0.6,1.4-1,2.1-1.2l20-3c2.6-0.4,5,1.1,5,3.1v21.7
	c0,3,0.9,3.1,2.6,0.4l14.7-23.5c0.7-1.1,2.3-1.8,3.9-1.6L854,505z"/>
<path class="st36" d="M639.9,483.4H395.4c-5.3,0-9.7-3.3-9.7-7.4V355.5h263.8V476C649.6,480.1,645.3,483.4,639.9,483.4"/>
<path d="M586.3,460.6H449c-5.3,0-9.7-3.3-9.7-7.4v-74.9H596v74.9C596,457.3,591.7,460.6,586.3,460.6"/>
<rect x="304.8" y="367.7" width="81.6" height="102.2"/>
<rect x="649.2" y="367.7" width="81.6" height="102.2"/>
<path class="st36" d="M186.7,497h66.6c0,0-11.4,73.9,1.5,81.8c12.9,8-68.7,21.3-73,19.8c-4.3-1.5-37.2-31-37.2-31L186.7,497z"/>
<rect x="183.2" y="482.9" width="70.1" height="14.1"/>
<path d="M252.6,503c0,0-9.3,60.2,0,74.4c9.3,14.1,36.6,11.2,36.6,11.2l217.1-2l246.7-2.5l23.6-2.3c0,0,14.9-14,8.3-80l-104-5.5
	l-91.5-2.9l-318.7-3.5L252.6,503z"/>
<path class="st36" d="M785,501.8c0,0,3.4,63.2-5.5,75.6c-8.9,12.3,64.2-5.3,64.2-5.3l17.3-58.8c0,0-7-7.1-11.7-15.2L785,501.8z"/>
<path class="st30" d="M341.7,401c-1.8-3.6-4.4-6.6-7.8-9.1c-3.4-2.5-7.6-4.3-12.5-5.4c-4.9-1.1-10.6-1.3-16.9-0.6
	c-13.1,1.2-26.5,2.8-40.2,4.8l1.8,67.5c7.8,0.7,14.3,1.2,19.5,1.2c5.2,0.1,9.4,0,12.6-0.3c3.1-0.3,6-0.7,8.7-1.3
	c6.7-2.4,12.4-5.3,17.3-8.8c4.9-3.5,8.9-7.3,12-11.3c3.1-4.1,5.4-8.3,6.8-12.6c1.4-4.4,2-8.6,1.8-12.7
	C344.6,408.4,343.6,404.6,341.7,401 M313.9,421.9c0,0.9-0.3,2.2-0.9,3.8c-0.6,1.6-1.5,3.2-2.9,4.9c-1.4,1.6-3.4,3.2-6.1,4.8
	c-2.7,1.5-6.2,2.7-10.5,3.4l1.1-24.8c3.4-2.1,6.3-3.2,8.6-3.4c2.3-0.2,4.2,0.2,5.6,1.1c1.4,0.9,2.4,2,3.2,3.4
	c0.8,1.4,1.2,2.6,1.5,3.6c0.2,1,0.3,1.6,0.3,1.7V421.9z"/>
<path class="st30" d="M409.5,425.2c3.6-3.5,6.2-7,7.9-10.7c1.7-3.7,2.3-7.2,2-10.7c-0.3-3.5-1.7-6.5-4.2-9.2
	c-2.5-2.6-6.1-4.6-10.8-6c-4.7-1.4-10.7-1.8-17.8-1.2c-13.3,1-27.2,2.1-41.6,3.4l1.8,67.5l27.5,2.2l0.3-14.8l27.6,15.5l17.6-15.1
	l-23.7-11.8C401.5,431.7,405.9,428.7,409.5,425.2 M388.4,414.3c-0.2,0.5-0.6,1.2-1.3,2.1c-0.7,0.9-1.8,1.8-3.1,2.8
	c-1.4,1-3,1.9-5.1,2.8c-2,0.9-4.4,1.5-7.1,2l1.1-13.8c3.6-1.1,6.5-1.7,8.6-1.7c2.1,0,3.7,0.2,4.7,0.8c1,0.5,1.7,1.2,1.9,2
	c0.3,0.8,0.4,1.5,0.3,2.1C388.5,414,388.4,414.3,388.4,414.3"/>
<polygon class="st30" points="421.9,455.8 432.4,458 434.7,448.9 422.7,448.4 "/>
<polygon class="st30" points="476,411.7 491,410.5 489.3,459.9 521.6,456.9 521.6,408.2 535.2,407 538.2,386.4 476.8,390.4 "/>
<path class="st30" d="M651.7,436c-4,1-7.1,1.2-9.4,0.3c-2.3-0.8-4.1-2.1-5.3-3.8c-1.3-1.7-2-3.2-2.4-4.6c-0.3-1.4-0.5-2.1-0.5-2.2
	c0.8-2.5,1.6-4.6,2.5-6.2c0.9-1.6,2.1-3.1,3.6-4.7c1.5-1.5,3.4-2.5,5.6-3c2.2-0.5,4.9-0.3,8,0.6c3.1,0.9,6.6,3,10.7,6.3l19.9-18.6
	c-4.5-4.2-9.1-7.3-13.7-9.4c-4.6-2.1-9-3.6-13.2-4.4c-4.2-0.8-8.1-1-11.7-0.8c-3.6,0.3-6.7,0.7-9.4,1.3c-2.7,0.6-5.5,1.5-8.5,2.8
	c-3.6,1.8-7.1,4.2-10.5,7.2c-3.4,3-6.4,6.4-9,10.1c-2.5,3.7-4.5,7.8-5.9,12c-1.4,4.3-1.8,8.5-1.3,12.8c0,0.2,0.1,0.5,0.1,0.7
	l-32.1,2.3l0.2-4.8l19-1.1l2.4-15.1l-20.7,1.1l0.1-4.2l28.5-1l3.5-21.9l-62.7,3.5l0.8,67.4l60.8-2.5l0.5-22.2
	c0.8,3.4,2.2,6.8,4.5,10.1c2.7,4,6.9,7.7,12.6,11.1c3.9,2.3,8.2,3.9,12.9,4.8c4.7,0.9,9.4,1.3,14.2,1.2c4.8-0.1,9.5-0.7,14.1-1.6
	c4.6-1,8.9-2.1,12.7-3.6c3.9-1.4,7.2-3,10-4.8c2.8-1.7,4.8-3.4,5.9-5.1l-22.2-18C660.6,432.4,655.7,434.9,651.7,436"/>
<polygon class="st30" points="736.6,388.6 735.3,418.8 718.4,419.7 722.4,388 689.2,390.4 693.6,459.1 721.8,458.7 723,438.8 
	734.9,437.5 733.4,456.5 759.8,454.1 769,387.4 "/>
<polygon class="st37" points="204.2,516.9 216,515.6 214.7,570.2 240.1,566.8 240.1,513.1 250.8,511.7 253.1,489 204.8,493.4 "/>
<path class="st37" d="M342.5,543.7c-3.1,1.1-5.6,1.3-7.4,0.4c-1.8-0.9-3.2-2.3-4.2-4.2c-1-1.9-1.6-3.6-1.9-5.1
	c-0.3-1.5-0.4-2.4-0.4-2.5c0.6-2.8,1.3-5.1,2-6.8c0.7-1.8,1.7-3.5,2.9-5.2c1.2-1.7,2.7-2.8,4.4-3.3c1.8-0.5,3.8-0.3,6.3,0.7
	c2.4,1,5.2,3.3,8.5,7l15.6-20.5c-3.6-4.6-7.2-8.1-10.8-10.4c-3.6-2.4-7.1-4-10.4-4.8c-3.3-0.9-6.4-1.1-9.2-0.9
	c-2.8,0.3-5.3,0.8-7.4,1.4c-2.1,0.7-4.3,1.7-6.7,3.1c-2.8,2-5.6,4.6-8.3,7.9c-2.7,3.3-5.1,7-7.1,11.2c-2,4.1-3.5,8.6-4.7,13.3
	c-1.1,4.7-1.4,9.4-1,14.1c0,0.3,0.1,0.5,0.1,0.8l-25.4,2.6l0.2-5.3l14.9-1.2l1.9-16.7l-16.3,1.2l0.1-4.6l22.4-1.1l2.8-24.2
	l-49.4,3.9l0.6,74.4l47.8-2.8l0.4-25.3c0.6,4.1,1.6,8,3.5,11.9c2.1,4.5,5.5,8.5,9.9,12.2c3.1,2.5,6.5,4.3,10.1,5.4
	c3.7,1,7.4,1.4,11.2,1.3c3.8-0.2,7.5-0.8,11.1-1.8c3.6-1,7-2.4,10-4c3-1.6,5.7-3.3,7.9-5.2c2.2-1.9,3.8-3.8,4.6-5.6l-17.4-19.9
	C349.5,539.7,345.6,542.6,342.5,543.7"/>
<polygon class="st37" points="408.2,524.7 395,525.8 398.1,490.7 372,493.4 375.4,569.3 397.7,568.8 398.6,546.9 408,545.4 
	406.8,566.4 427.6,563.8 434.8,490.1 409.3,491.4 "/>
<polygon class="st37" points="501.5,491.3 474.9,489.4 474.1,521 439.9,490.7 438.7,570.2 464.4,568.5 463.1,545.9 497.4,564.2 "/>
<path class="st37" d="M569.7,502.2c-1-2-2.5-4.1-4.5-6.1c-2-2-4.4-3.7-7.3-5.1c-2.9-1.4-6.1-2.3-9.6-2.7c-3.5-0.4-7.3-0.1-11.4,1
	c-4.3,1.2-8.3,3-12.1,5.3c-3.8,2.3-7.2,5-10.2,8.2c-3,3.2-5.6,6.7-7.8,10.6c-2.1,3.9-3.7,8-4.6,12.4c-1,4.4-1.2,8.9-0.8,13.6
	c0.4,4.7,1.6,9.5,3.6,14.2c1.8,4.3,4.1,7.7,7,10.4c2.9,2.7,6,4.7,9.4,6c3.4,1.3,7,2,10.7,2.1c3.7,0.1,7.3-0.3,10.9-1.2
	c3.5-0.9,6.8-2.2,9.9-3.9c3.1-1.7,5.7-3.7,7.8-6c4.4-4.8,7.6-9.8,9.8-15c2.2-5.3,3.6-10.5,4.1-15.6c0.5-5.2,0.3-10.1-0.6-14.9
	C573,510.3,571.6,506,569.7,502.2 M548.9,534.7c-0.7,2.1-1.8,4.4-3.3,6.9c-1,1.7-2.3,3.1-3.8,4.3c-1.5,1.2-3.1,2.2-4.8,2.8
	c-1.7,0.6-3.4,0.9-5.1,0.8c-1.7-0.1-3.3-0.6-4.6-1.5c-1.3-0.9-2.4-2.3-3.3-4.2c-0.9-1.9-1.3-4.4-1.2-7.4c0-3.2,0.5-6.2,1.6-8.9
	s2.4-4.9,4-6.8c1.6-1.9,3.4-3.3,5.4-4.4c2-1.1,3.9-1.6,5.8-1.8c1.9-0.1,3.7,0.3,5.3,1.1c1.6,0.9,2.9,2.4,3.8,4.4
	c0.5,1.1,1,2.5,1.3,3.9c0.3,1.5,0.4,3.1,0.2,4.9C550,530.6,549.6,532.6,548.9,534.7"/>
<path class="st37" d="M724.9,526.7l-1.4,15.4l12.7-2.6c-0.7,1.8-1.8,3.5-3.3,4.9c-1.5,1.4-3.1,2.6-4.9,3.4c-1.8,0.9-3.6,1.3-5.5,1.4
	c-1.9,0.1-3.5-0.3-5.1-1.1c-1.5-0.8-2.8-2.2-3.8-4.1c-1-1.9-1.4-4.4-1.4-7.5c0-3.4,0.6-6.4,1.9-9.1c1.3-2.7,2.9-4.9,4.9-6.8
	c2-1.8,4.1-3.3,6.5-4.3c2.4-1,4.7-1.5,6.9-1.5c2.3,0,4.3,0.5,6.1,1.5c1.8,1,3.1,2.6,4,4.7l16.7-18.8c-3.2-3.3-6.3-5.9-9.6-7.8
	c-3.2-1.9-6.2-3.2-8.9-4c-2.7-0.8-5.2-1.3-7.4-1.4c-2.2-0.1-3.9-0.1-5.1,0.1c-1.2,0.2-1.8,0.2-1.9,0.2c-4.3,1-8.4,2.5-12.3,4.8
	c-3.9,2.2-7.4,4.9-10.5,8.1c-3.1,3.2-5.8,6.7-8,10.6c-1.1,2-2.1,4.1-2.9,6.2c-0.1-1.4-0.2-2.7-0.5-4c-0.9-4.8-2.3-9.1-4.2-12.9
	c-1-2-2.5-4.1-4.5-6.1c-2-2-4.4-3.7-7.3-5.1c-2.9-1.4-6.1-2.3-9.6-2.7c-3.5-0.4-7.3-0.1-11.4,1c-4.3,1.2-8.3,3-12.1,5.3
	c-3.8,2.3-7.2,5-10.2,8.2c-3,3.2-5.6,6.7-7.8,10.6c-2.1,3.9-3.7,8-4.6,12.4c-1,4.4-1.2,8.9-0.8,13.6c0,0,0,0,0,0l-19.7,4.4l2.3-53.8
	l-26.9,4l0.6,76.8l46.9-5.1l-0.6-14.9c0.3,0.9,0.6,1.9,1,2.8c1.8,4.3,4.1,7.7,7,10.4c2.9,2.7,6,4.7,9.4,6c3.4,1.3,7,2,10.7,2.1
	c3.7,0.1,7.3-0.3,10.9-1.2c3.5-0.9,6.8-2.2,9.9-3.9c3.1-1.7,5.7-3.7,7.8-6c4.4-4.8,7.6-9.8,9.8-15c0.5-1.3,0.9-2.5,1.3-3.8
	c0.5,3.9,1.4,7.8,3.1,11.7c1.8,4.3,4.1,7.7,7,10.4c2.9,2.7,6,4.7,9.4,6c3.4,1.3,7,2,10.7,2.1c3.8,0.1,7.4-0.3,10.9-1.2
	c3.5-0.9,6.8-2.2,9.9-3.9c3.1-1.7,5.7-3.7,7.8-6c0.1-0.1,0.7-0.9,1.8-2.2c1.1-1.3,2.5-3.3,4.2-5.9c1.7-2.6,3.3-5.5,4.8-8.7
	c1.5-3.2,2.7-6.8,3.6-10.7c0.9-3.9,1-7.9,0.5-11.9L724.9,526.7z M667.3,534.7c-0.7,2.1-1.8,4.4-3.3,6.9c-1,1.7-2.3,3.1-3.8,4.3
	c-1.5,1.2-3.1,2.2-4.8,2.8c-1.7,0.6-3.4,0.9-5.1,0.8c-1.7-0.1-3.3-0.6-4.6-1.5c-1.3-0.9-2.4-2.3-3.3-4.2c-0.9-1.9-1.3-4.4-1.2-7.4
	c0-3.2,0.5-6.2,1.6-8.9s2.4-4.9,4-6.8c1.6-1.9,3.4-3.3,5.4-4.4c2-1.1,3.9-1.6,5.8-1.8c1.9-0.1,3.7,0.3,5.3,1.1
	c1.6,0.9,2.9,2.4,3.8,4.4c0.5,1.1,1,2.5,1.3,3.9c0.3,1.5,0.4,3.1,0.2,4.9C668.4,530.6,668,532.6,667.3,534.7"/>
<polygon class="st37" points="809.9,489.1 792.7,515.6 776.9,489.1 757.7,505.1 780.2,538.8 780.2,566.8 804.3,570.3 804.5,542.8 
	831.8,505.1 "/>
</svg>
